<svg width="1101" height="89" viewBox="0 0 1101 89" fill="none" xmlns="http://www.w3.org/2000/svg">
<path d="M955.766 2.06306V87H34.9052V2.46847L955.766 2.06306Z" fill="#ABD765"/>
<path d="M955.766 2.06306L1094 2.0022C1096.76 2.00099 1099 4.23992 1099 7.0022V82C1099 84.7614 1096.76 87 1094 87H955.766M955.766 2.06306V87M955.766 2.06306L34.9052 2.46847M955.766 87H34.9052M34.9052 2.46847L6.99783 2.48075C4.23726 2.48197 2.00003 4.72018 2.00003 7.48075V82C2.00003 84.7614 4.23861 87 7.00003 87H34.9052M34.9052 2.46847V87" stroke="#ABD765" stroke-width="2.85311"/>
<path d="M1039.97 11L1051.41 17.084C1054.79 18.8851 1054.97 23.671 1051.73 25.7228L1046.74 28.8831C1043.62 30.8622 1043.65 35.4326 1046.8 37.3683L1050.9 39.8852C1054.12 41.8634 1054.07 46.5635 1050.8 48.4665L1045.83 51.3633C1042.65 53.2121 1042.49 57.7375 1045.52 59.8109L1051.05 63.5902C1054.19 65.7361 1053.88 70.46 1050.49 72.1778L1038.99 78" stroke="#ABD765" stroke-width="2.85311"/>
<path d="M1029.8 11L1041.24 17.084C1044.63 18.8851 1044.81 23.671 1041.57 25.7228L1036.58 28.8831C1033.45 30.8622 1033.48 35.4326 1036.64 37.3683L1040.74 39.8852C1043.96 41.8634 1043.9 46.5635 1040.64 48.4665L1035.66 51.3633C1032.49 53.2121 1032.33 57.7375 1035.36 59.8109L1040.88 63.5902C1044.02 65.7361 1043.71 70.46 1040.32 72.1778L1028.83 78" stroke="#ABD765" stroke-width="2.85311"/>
<path d="M1019.64 11L1031.08 17.084C1034.46 18.8851 1034.64 23.671 1031.4 25.7228L1026.41 28.8831C1023.29 30.8622 1023.32 35.4326 1026.47 37.3683L1030.57 39.8852C1033.79 41.8634 1033.74 46.5635 1030.47 48.4665L1025.5 51.3633C1022.32 53.2121 1022.16 57.7375 1025.19 59.8109L1030.72 63.5902C1033.86 65.7361 1033.55 70.46 1030.16 72.1778L1018.66 78" stroke="#ABD765" stroke-width="2.85311"/>
<path d="M1009.47 11L1020.91 17.084C1024.3 18.8851 1024.48 23.671 1021.24 25.7228L1016.25 28.8831C1013.12 30.8622 1013.15 35.4326 1016.31 37.3683L1020.4 39.8852C1023.63 41.8634 1023.57 46.5635 1020.3 48.4665L1015.33 51.3633C1012.16 53.2121 1011.99 57.7375 1015.03 59.8109L1020.55 63.5902C1023.69 65.7361 1023.38 70.46 1019.99 72.1778L1008.5 78" stroke="#ABD765" stroke-width="2.85311"/>
<path d="M999.308 11L1010.75 17.084C1014.13 18.8851 1014.31 23.671 1011.07 25.7228L1006.08 28.8831C1002.96 30.8622 1002.99 35.4326 1006.14 37.3683L1010.24 39.8852C1013.46 41.8634 1013.41 46.5635 1010.14 48.4665L1005.17 51.3633C1001.99 53.2121 1001.83 57.7375 1004.86 59.8109L1010.39 63.5902C1013.53 65.7361 1013.22 70.46 1009.83 72.1778L998.332 78" stroke="#ABD765" stroke-width="2.85311"/>
<path d="M989.142 11L1000.58 17.084C1003.97 18.8851 1004.15 23.671 1000.91 25.7228L995.916 28.8831C992.791 30.8622 992.822 35.4326 995.975 37.3683L1000.07 39.8852C1003.3 41.8634 1003.24 46.5635 999.974 48.4665L995.002 51.3633C991.828 53.2121 991.664 57.7375 994.696 59.8109L1000.22 63.5902C1003.36 65.7361 1003.05 70.46 999.659 72.1778L988.166 78" stroke="#ABD765" stroke-width="2.85311"/>
<path d="M978.976 11L990.414 17.084C993.801 18.8851 993.982 23.671 990.741 25.7228L985.75 28.8831C982.625 30.8622 982.656 35.4326 985.809 37.3683L989.908 39.8852C993.129 41.8634 993.075 46.5635 989.808 48.4665L984.835 51.3633C981.662 53.2121 981.498 57.7375 984.53 59.8109L990.056 63.5902C993.194 65.7361 992.885 70.46 989.493 72.1778L978 78" stroke="#ABD765" stroke-width="2.85311"/>
</svg>
