<svg width="895" height="297" viewBox="0 0 895 297" fill="none" xmlns="http://www.w3.org/2000/svg">
<path d="M97.1759 124.276C92.666 111.101 107.358 117.104 107.559 124.276C107.559 127.409 107.693 133.36 108.106 140.655H116.602C116.999 125.298 119.722 119.778 122.777 117.257C139.166 103.729 131.622 126.899 129.142 142.995H159.98C163.939 127.426 167.104 109.627 170.616 115.433C175.45 123.425 175.862 132.724 173.625 142.995C222.731 140.187 211.696 102.048 200.04 83.329C136.825 -28.9841 18.59 31.8521 4.54228 84.4989C-6.6959 126.616 22.0371 134.806 37.8083 133.636C34.6237 119.653 40.8284 110.01 43.2201 120.767C44.1718 125.046 43.8508 130.11 45.2073 133.636L63.7034 137.401C62.6495 132.662 63.8791 127.373 64.1764 123.213C65.0841 110.512 69.4291 115.737 72.1826 120.332C72.3553 120.62 72.4957 120.926 72.5964 121.247C74.1939 126.333 74.1372 132.293 76.466 138.316H87.7095L99.6739 137.401C99.4067 133.633 99.1203 129.957 97.1759 124.276Z" fill="#ABD765"/>
<path d="M37.8083 133.636C34.6237 119.653 40.8284 110.01 43.2201 120.767C44.1718 125.046 43.8508 130.11 45.2073 133.636M37.8083 133.636C40.8586 147.029 48.1841 165.476 63.0745 176.923C67.556 180.368 72.4396 183.79 72.4396 205.001L73.5464 288.982C73.582 291.683 75.7571 293.868 78.4583 293.915L135.184 294.91C138.005 294.959 140.307 292.667 140.272 289.847L139.166 202.662C139.557 197.202 142.21 184.879 149.702 179.263C156.912 173.859 163.978 165.854 166.934 162.131C167.155 161.853 167.34 161.554 167.491 161.234C169.577 156.804 172.063 150.169 173.625 142.995M37.8083 133.636C22.0371 134.806 -6.6959 126.616 4.54228 84.4989C18.59 31.8521 136.825 -28.9841 200.04 83.329C211.696 102.048 222.731 140.187 173.625 142.995M173.625 142.995C175.862 132.724 175.45 123.425 170.616 115.433C167.104 109.627 163.939 127.426 159.98 142.995M159.98 142.995C153.753 155.335 145.849 166.635 139.166 168.734C133.203 170.607 127.407 167.564 128.631 148.845C128.766 146.772 129.008 144.83 129.142 142.995M159.98 142.995H129.142M129.142 142.995C131.622 126.899 139.166 103.729 122.777 117.257C119.722 119.778 116.999 125.298 116.602 140.655M116.602 140.655C116.417 147.775 116.539 156.468 116.892 166.66C116.913 167.257 116.833 167.856 116.62 168.415C114.936 172.816 111.66 176.664 109.9 161.714C109.03 154.324 108.463 146.984 108.106 140.655M116.602 140.655H108.106M108.106 140.655C107.693 133.36 107.559 127.409 107.559 124.276C107.358 117.104 92.666 111.101 97.1759 124.276C99.1203 129.957 99.4067 133.633 99.6739 137.401M99.6739 137.401C100.367 147.173 101.573 153.535 98.1938 168.734C95.2927 181.781 83.6724 160.601 76.466 138.316M99.6739 137.401L87.7095 138.316H76.466M76.466 138.316C74.1372 132.293 74.1939 126.333 72.5964 121.247C72.4957 120.926 72.3553 120.62 72.1826 120.332C69.4291 115.737 65.0841 110.512 64.1764 123.213C63.8791 127.373 62.6495 132.662 63.7034 137.401M63.7034 137.401C68.5715 146.88 78.4032 159.374 73.6103 161.714C71.6592 162.494 66.3523 163.118 60.7332 159.374C55.1368 155.646 50.5257 147.461 45.2073 133.636M63.7034 137.401L45.2073 133.636" stroke="#ABD765" stroke-width="3"/>
<path d="M306.903 196.568C318.116 192.922 340.631 178.613 340.995 150.542C341.308 126.391 327.064 116.924 316.904 114.364C315.453 113.998 314.085 113.773 312.855 113.667C312.525 113.638 312.198 113.585 311.876 113.507C307.168 112.363 298.646 111.872 290.539 115.244C286.468 116.938 282.502 119.606 279.176 123.655C266.448 139.149 269.175 165.124 274.176 174.238C278.429 181.992 285.643 192.713 299.176 195.742C301.551 196.273 304.121 196.568 306.903 196.568Z" fill="#ABD765"/>
<path d="M311.876 113.507C312.198 113.585 312.525 113.638 312.855 113.667C314.085 113.773 315.453 113.998 316.904 114.364C329.419 101.422 346.916 71.7194 317.337 55.9828C317.057 55.8341 316.751 55.7083 316.446 55.6241C316.153 55.5433 315.851 55.4659 315.54 55.3926C311.882 54.5295 307.075 54.23 302.212 55.3926C293.59 57.4535 284.79 64.109 281.903 80.3632C280.085 86.9081 279.267 103.047 290.539 115.244C298.646 111.872 307.168 112.363 311.876 113.507Z" fill="#ABD765"/>
<path d="M315.54 55.3926C323.267 47.007 334.358 28.2307 316.904 20.2103C295.085 10.1848 293.267 37.0713 295.54 44.8183C297.358 51.0159 300.745 54.4502 302.212 55.3926C307.075 54.23 311.882 54.5295 315.54 55.3926Z" fill="#ABD765"/>
<path d="M306.903 196.568V290C306.903 292.761 304.665 295 301.903 295H301.588C298.773 295 296.513 292.677 296.59 289.863L299.176 195.742M306.903 196.568C318.116 192.922 340.631 178.613 340.995 150.542C341.308 126.391 327.064 116.924 316.904 114.364M306.903 196.568C304.121 196.568 301.551 196.273 299.176 195.742M316.904 114.364C315.453 113.998 314.085 113.773 312.855 113.667C312.525 113.638 312.198 113.585 311.876 113.507C307.168 112.363 298.646 111.872 290.539 115.244M316.904 114.364C329.419 101.422 346.916 71.7194 317.337 55.9828C317.057 55.8341 316.751 55.7083 316.446 55.6241C316.153 55.5433 315.851 55.4659 315.54 55.3926M290.539 115.244C286.468 116.938 282.502 119.606 279.176 123.655C266.448 139.149 269.175 165.124 274.176 174.238C278.429 181.992 285.643 192.713 299.176 195.742M290.539 115.244C279.267 103.047 280.085 86.9081 281.903 80.3632C284.79 64.109 293.59 57.4535 302.212 55.3926M315.54 55.3926C323.267 47.007 334.358 28.2307 316.904 20.2103C295.085 10.1848 293.267 37.0713 295.54 44.8183C297.358 51.0159 300.745 54.4502 302.212 55.3926M315.54 55.3926C311.882 54.5295 307.075 54.2301 302.212 55.3926" stroke="#ABD765" stroke-width="3"/>
<path d="M204.077 267.253C206.413 267.133 207.858 264.644 206.689 262.618C195.337 242.927 185.184 251.971 179.628 262.633C178.185 265.404 180.444 268.474 183.564 268.313L204.077 267.253Z" fill="#ABD765"/>
<path d="M183.564 268.313V268.313C180.444 268.474 178.185 265.404 179.628 262.633C185.184 251.971 195.337 242.927 206.689 262.618C207.858 264.644 206.413 267.133 204.077 267.253V267.253M183.564 268.313V288.641C183.564 290.565 184.658 292.342 186.46 293.014C192.429 295.242 201.129 296.78 203.785 290.888C204.004 290.402 204.077 289.864 204.077 289.33V267.253M183.564 268.313L204.077 267.253" stroke="#ABD765" stroke-width="3"/>
<path d="M543.077 267.253C545.413 267.133 546.858 264.644 545.689 262.618C534.337 242.927 524.184 251.971 518.628 262.633C517.185 265.404 519.444 268.474 522.564 268.313L543.077 267.253Z" fill="#ABD765"/>
<path d="M522.564 268.313V268.313C519.444 268.474 517.185 265.404 518.628 262.633C524.184 251.971 534.337 242.927 545.689 262.618C546.858 264.644 545.413 267.133 543.077 267.253V267.253M522.564 268.313V288.641C522.564 290.565 523.658 292.342 525.46 293.014C531.429 295.242 540.129 296.78 542.785 290.888C543.004 290.402 543.077 289.864 543.077 289.33V267.253M522.564 268.313L543.077 267.253" stroke="#ABD765" stroke-width="3"/>
<path d="M556.923 267.253C554.587 267.133 553.142 264.644 554.311 262.618C565.663 242.927 575.816 251.971 581.372 262.633C582.815 265.404 580.556 268.474 577.436 268.313L556.923 267.253Z" fill="#ABD765"/>
<path d="M577.436 268.313V268.313C580.556 268.474 582.815 265.404 581.372 262.633C575.816 251.971 565.663 242.927 554.311 262.618C553.142 264.644 554.587 267.133 556.923 267.253V267.253M577.436 268.313V288.641C577.436 290.565 576.342 292.342 574.54 293.014C568.571 295.242 559.871 296.78 557.215 290.888C556.996 290.402 556.923 289.864 556.923 289.33V267.253M577.436 268.313L556.923 267.253" stroke="#ABD765" stroke-width="3"/>
<path fill-rule="evenodd" clip-rule="evenodd" d="M156.589 281.217L159.75 281.202L171.25 281.217H174.678C175.811 281.217 176.602 280.099 176.177 279.058C169.034 261.566 159.908 270.474 155.178 278.937C154.595 279.98 155.385 281.217 156.589 281.217Z" fill="#ABD765"/>
<path d="M159.75 281.202L156.589 281.217M159.75 281.202L174.678 281.217M159.75 281.202L171.25 281.217M159.75 281.202V281.217M171.25 281.217H174.678M171.25 281.217V291.325M171.25 281.217H159.75M176.177 279.058C169.034 261.566 159.908 270.474 155.178 278.937M176.177 279.058C176.602 280.099 175.811 281.217 174.678 281.217M176.177 279.058V279.058C176.603 280.101 175.804 281.217 174.678 281.217V281.217M155.178 278.937C154.595 279.98 155.385 281.217 156.589 281.217M155.178 278.937V278.937C154.596 279.977 155.397 281.217 156.589 281.217V281.217M156.589 281.217H159.75M174.678 281.217H159.75M159.75 291.59C159.75 291.724 159.764 291.857 159.807 291.984M159.75 291.59V291.59C159.75 291.724 159.764 291.858 159.807 291.984V291.984M159.75 291.59V281.217M171.25 291.325C171.25 291.63 171.166 291.932 170.987 292.181M171.25 291.325V291.325C171.25 291.63 171.166 291.933 170.987 292.181V292.181M170.987 292.181C167.657 296.798 160.838 295.024 159.807 291.984" stroke="#ABD765" stroke-width="3"/>
<path fill-rule="evenodd" clip-rule="evenodd" d="M804.589 281.217L807.75 281.202L819.25 281.217H822.678C823.811 281.217 824.602 280.099 824.177 279.058C817.034 261.566 807.908 270.474 803.178 278.937C802.595 279.98 803.385 281.217 804.589 281.217Z" fill="#ABD765"/>
<path d="M807.75 281.202L804.589 281.217M807.75 281.202L822.678 281.217M807.75 281.202L819.25 281.217M807.75 281.202V281.217M819.25 281.217H822.678M819.25 281.217V291.325M819.25 281.217H807.75M824.177 279.058C817.034 261.566 807.908 270.474 803.178 278.937M824.177 279.058C824.602 280.099 823.811 281.217 822.678 281.217M824.177 279.058V279.058C824.603 280.101 823.804 281.217 822.678 281.217V281.217M803.178 278.937C802.595 279.98 803.385 281.217 804.589 281.217M803.178 278.937V278.937C802.596 279.977 803.397 281.217 804.589 281.217V281.217M804.589 281.217H807.75M822.678 281.217H807.75M807.75 291.59C807.75 291.724 807.764 291.857 807.807 291.984M807.75 291.59V291.59C807.75 291.724 807.764 291.858 807.807 291.984V291.984M807.75 291.59V281.217M819.25 291.325C819.25 291.63 819.166 291.932 818.987 292.181M819.25 291.325V291.325C819.25 291.63 819.166 291.933 818.987 292.181V292.181M818.987 292.181C815.657 296.798 808.838 295.024 807.807 291.984" stroke="#ABD765" stroke-width="3"/>
<path d="M464.26 95.1494L467.822 92.6953C468.132 92.4819 468.557 92.6757 468.595 93.0499C473.482 89.535 482.169 80.8737 483.425 71.0393C483.788 68.2011 485.728 65.5049 488.485 64.7412C499.907 61.5777 517.662 51.9178 506.405 35.5642C498.055 23.4335 487.399 25.7613 480.077 31.4774C476.362 34.3776 467.456 34.264 464.489 30.6026C441.219 1.89317 398.535 18.2045 401.194 56.1489C401.379 58.7901 399.718 61.2848 397.235 62.2044C386.202 66.2913 369.481 77.4845 378.645 94.7016C388.363 112.957 408.233 104.448 414.99 98.005C415.91 97.1269 417.358 97.0143 418.419 97.7162C419.084 98.1554 419.846 98.6153 420.699 99.0778C422.693 100.159 424.188 101.254 427.087 102.134C428.635 102.604 431.296 103.013 433.063 103.326C436.546 103.942 440.427 104.184 444.603 103.786L451.197 102.134C451.204 102.153 451.212 102.171 451.22 102.189C451.585 102.159 456.788 97.7969 456.788 99.6414L464.26 95.1494Z" fill="#ABD765"/>
<path d="M464.26 95.1494L467.822 92.6953C468.132 92.4819 468.557 92.6757 468.595 93.0499V93.0499M464.26 95.1494C463.711 101.481 463.586 111.459 462.268 112.119C460.619 112.945 456.788 102.119 456.788 99.6414M464.26 95.1494L456.788 99.6414M456.788 99.6414C456.788 97.7969 451.585 102.159 451.22 102.189M451.197 102.134L444.603 103.786M451.197 102.134C451.204 102.153 451.212 102.171 451.22 102.189M451.197 102.134C451.184 102.175 451.192 102.192 451.22 102.189M444.603 103.786C444.603 108.358 445.392 117.676 446.152 125.445C446.532 129.338 451.023 131.205 453.839 128.492C457.557 124.91 460.659 121.106 459.44 119.477C457.469 116.845 453.154 106.892 451.22 102.189M444.603 103.786C440.427 104.184 436.546 103.942 433.063 103.326M444.603 103.786C443.676 103.874 442.763 103.931 441.866 103.96C438.914 104.052 436.36 106.337 436.36 109.29V112.334C436.36 115.805 432.864 118.217 430.012 116.24C429.025 115.556 428.139 114.807 427.492 114.019C426.586 112.914 426.962 111.392 427.824 110.253L433.063 103.326M468.595 93.0499C471.162 118.201 459.463 132.626 451.062 138.304C449.258 139.524 448.089 141.582 448.376 143.74C450.249 157.807 453.952 184.102 456.967 200.41C460.066 217.178 461.466 264.837 461.851 290.388C461.889 292.93 459.836 295 457.295 295V295C454.819 295 452.795 293.03 452.732 290.556C452.158 267.99 451.197 229.309 451.197 226.838C451.197 224.302 442.595 164.782 437.773 131.76C437.429 129.408 435.43 127.727 433.199 126.908C422.55 123.004 416.691 106.592 414.99 98.005M468.595 93.0499C473.482 89.535 482.169 80.8737 483.425 71.0393C483.788 68.2011 485.728 65.5049 488.485 64.7412C499.907 61.5777 517.662 51.9178 506.405 35.5642C498.055 23.4335 487.399 25.7613 480.077 31.4774C476.362 34.3776 467.456 34.264 464.489 30.6026C441.219 1.89317 398.535 18.2045 401.194 56.1489C401.379 58.7901 399.718 61.2848 397.235 62.2044C386.202 66.2913 369.481 77.4845 378.645 94.7016C388.363 112.957 408.233 104.448 414.99 98.005M433.063 103.326C431.296 103.013 428.635 102.604 427.087 102.134M427.087 102.134V102.134C426.329 105.958 420.699 105.405 420.699 101.507V99.0778M427.087 102.134C424.188 101.254 422.693 100.159 420.699 99.0778M420.699 99.0778C419.846 98.6153 419.084 98.1554 418.419 97.7162C417.358 97.0143 415.91 97.1269 414.99 98.005V98.005" stroke="#ABD765" stroke-width="3"/>
<path d="M357.957 277.692C371.845 277.429 396.005 269.824 381.54 241.501C363.46 206.098 320.224 224.98 321.011 250.155C321.797 275.331 335.16 277.802 347.738 277.692V270.501C347.738 267.955 349.802 265.89 352.348 265.89C354.659 265.89 356.613 267.601 356.918 269.892L357.957 277.692Z" fill="#ABD765"/>
<path d="M357.957 277.692L359.542 289.325C359.951 292.327 357.618 295 354.588 295H352.738C349.977 295 347.738 292.761 347.738 290V277.692M357.957 277.692C371.845 277.429 396.005 269.824 381.54 241.501C363.46 206.098 320.224 224.98 321.011 250.155C321.797 275.331 335.16 277.802 347.738 277.692M357.957 277.692L356.918 269.892C356.613 267.601 354.659 265.89 352.348 265.89V265.89C349.802 265.89 347.738 267.955 347.738 270.501V277.692" stroke="#ABD765" stroke-width="3"/>
<path d="M673.934 109.471C669.992 119.689 651.935 147.108 699.319 146.624C699.812 146.619 700.324 146.536 700.795 146.391C707.137 144.431 719.34 141.655 731 141.577C735.125 141.549 739.183 141.859 742.889 142.662C747.359 143.631 751.645 143.932 755.57 143.814C763.723 143.571 770.314 141.525 773.75 139.919C774.314 139.655 774.91 139.464 775.53 139.4C776.705 139.278 777.987 139.167 779.348 139.074C783.627 138.781 788.684 138.661 793.614 138.945C798.953 139.253 804.144 140.033 808.043 141.577C811.037 142.762 813.269 144.397 814.222 146.613C818.977 157.677 848.303 151.355 854.644 136.34C860.985 121.325 885.555 114.212 887.14 109.471C888.725 104.729 906.162 81.0211 872.081 62.8448C837.999 44.6686 895.066 33.6049 854.644 16.2189C814.222 -1.16703 819.77 22.5411 805.503 19.38C791.237 16.2189 785.689 -1.9573 764.289 2.78432C747.169 6.57761 724.325 -4.87647 717.527 12.2677C709.691 32.0304 691.372 29.1624 682.742 32.0304C629.576 49.6993 682.652 76.2794 680.274 88.1335C678.372 97.6167 675.254 106.31 673.934 109.471Z" fill="#ABD765"/>
<path d="M742.889 142.662C739.183 141.859 735.125 141.549 731 141.577M742.889 142.662C747.359 143.631 751.645 143.932 755.57 143.814M742.889 142.662L746.632 149.618C749.292 154.56 756.823 152.045 755.978 146.497L755.57 143.814M731 141.577C719.34 141.655 707.137 144.431 700.795 146.391C700.324 146.536 699.812 146.619 699.319 146.624C651.935 147.108 669.992 119.689 673.934 109.471C675.254 106.31 678.372 97.6167 680.274 88.1335C682.652 76.2794 629.576 49.6993 682.742 32.0304C691.372 29.1624 709.691 32.0304 717.527 12.2677C724.325 -4.87647 747.169 6.57761 764.289 2.78432C785.689 -1.9573 791.237 16.2189 805.503 19.38C819.77 22.5411 814.222 -1.16703 854.644 16.2189C895.066 33.6049 837.999 44.6686 872.081 62.8448C906.162 81.0211 888.725 104.729 887.14 109.471C885.555 114.212 860.985 121.325 854.644 136.34C848.303 151.355 818.977 157.677 814.222 146.613C813.269 144.397 811.037 142.762 808.043 141.577M731 141.577C736.284 154.583 750.378 181.884 755.57 192.449C762.159 205.856 761.911 290.443 766.666 293.604C769.695 295.617 778.954 295.092 785.803 294.263C788.421 293.946 790.237 291.574 789.985 288.948C787.323 261.293 783.488 209.757 786.481 192.449C789.651 174.115 802.177 150.895 808.043 141.577M808.043 141.577C804.144 140.033 798.953 139.253 793.614 138.945M793.614 138.945L789.432 147.203C787.176 151.657 780.503 150.418 779.997 145.451L779.348 139.074M793.614 138.945C788.684 138.661 783.627 138.781 779.348 139.074M779.348 139.074C777.987 139.167 776.705 139.278 775.53 139.4C774.91 139.464 774.314 139.655 773.75 139.919C770.314 141.525 763.723 143.571 755.57 143.814" stroke="#ABD765" stroke-width="3"/>
<path d="M662.669 166.279C661.62 165.947 660.537 166.357 659.668 167.032C649.437 174.978 631.363 190.136 628.301 197.845C627.563 199.704 629.425 200.891 631.423 200.791C638.728 200.427 649.316 200.908 650.683 204.993C652.58 210.665 624.324 213.934 618.25 217.664C617.73 217.983 617.238 218.331 616.695 218.609C608.286 222.9 603.525 233.858 621.506 235.394C644.715 237.377 650.019 228.785 648.693 235.394C647.632 240.682 617.528 247.467 606.255 257.204C599.624 262.932 592.595 274.52 617.528 275.048C642.46 275.577 657.535 273.066 661.955 271.744V254.95C661.955 253.086 662.964 251.237 664.79 250.859C669.952 249.788 674.128 254.246 673.228 271.744L716.993 275.048C725.269 275.048 735.42 265.27 719.968 252.187C719.76 252.011 719.532 251.85 719.296 251.714C705.679 243.815 681.452 233.856 673.228 226.142C661.955 215.567 691.508 233.412 701.455 233.412C711.401 233.412 730.043 230.45 716.993 222.176C710.738 218.211 695.332 211.602 688.48 210.28C681.627 208.958 667.525 205.257 665.934 201.028C663.945 195.74 698.426 205.654 698.426 201.028C698.426 197.327 687.99 189.687 682.888 185.166C677.42 180.322 668.946 168.266 662.669 166.279Z" fill="#ABD765"/>
<path d="M661.955 271.744C657.535 273.066 642.46 275.577 617.528 275.048C592.595 274.52 599.624 262.932 606.255 257.204C617.528 247.467 647.632 240.682 648.693 235.394C650.019 228.785 644.715 237.377 621.506 235.394C603.525 233.858 608.286 222.9 616.695 218.609C617.238 218.331 617.73 217.983 618.25 217.664C624.324 213.934 652.58 210.665 650.683 204.993C649.316 200.908 638.728 200.427 631.423 200.791C629.425 200.891 627.563 199.704 628.301 197.845C631.363 190.136 649.437 174.978 659.668 167.032C660.537 166.357 661.62 165.947 662.669 166.279C668.946 168.266 677.42 180.322 682.888 185.166C687.99 189.687 698.426 197.327 698.426 201.028C698.426 205.654 663.945 195.74 665.934 201.028C667.525 205.257 681.627 208.958 688.48 210.28C695.332 211.602 710.738 218.211 716.993 222.176C730.043 230.45 711.401 233.412 701.455 233.412C691.508 233.412 661.955 215.567 673.228 226.142C681.452 233.856 705.679 243.815 719.296 251.714C719.532 251.85 719.76 252.011 719.968 252.187C735.42 265.27 725.269 275.048 716.993 275.048L673.228 271.744M661.955 271.744V254.95C661.955 253.086 662.964 251.237 664.79 250.859C669.952 249.788 674.128 254.246 673.228 271.744M661.955 271.744V289.875C661.955 292.637 664.194 294.875 666.955 294.875H667.338C669.631 294.875 671.692 293.609 671.923 291.327C672.26 288.003 672.7 282.007 673.228 271.744" stroke="#ABD765" stroke-width="3"/>
</svg>
