<svg width="242" height="261" viewBox="0 0 242 261" fill="none" xmlns="http://www.w3.org/2000/svg">
<path fill-rule="evenodd" clip-rule="evenodd" d="M144.235 229.076L147.622 229.717L159.93 232.117L163.6 232.828C164.814 233.063 165.866 232.171 165.602 231.101C161.175 213.109 149.766 219.624 143.144 226.631C142.328 227.495 142.946 228.826 144.235 229.076Z" fill="#ABD765"/>
<path d="M147.622 229.717L144.235 229.076M147.622 229.717L163.6 232.828M147.622 229.717L159.93 232.117M147.622 229.717L147.619 229.731M159.93 232.117L163.6 232.828M159.93 232.117L158.07 241.657M159.93 232.117L147.619 229.731M165.602 231.101C161.175 213.109 149.766 219.624 143.144 226.631M165.602 231.101C165.866 232.171 164.814 233.063 163.6 232.828M165.602 231.101V231.101C165.861 232.151 164.927 233.085 163.866 232.879L163.6 232.828M143.144 226.631C142.328 227.495 142.946 228.826 144.235 229.076M143.144 226.631V226.631C142.355 227.466 142.831 228.804 143.959 229.022L144.235 229.076M144.235 229.076L147.619 229.731M163.6 232.828L147.619 229.731M145.71 239.523C145.685 239.649 145.676 239.778 145.698 239.906M145.71 239.523V239.523C145.685 239.649 145.676 239.778 145.698 239.904C145.698 239.905 145.698 239.906 145.698 239.906M145.71 239.523L147.619 229.731M158.07 241.657C158.014 241.945 157.868 242.214 157.631 242.411M158.07 241.657V241.657C158.014 241.944 157.872 242.209 157.648 242.396C157.643 242.401 157.637 242.406 157.631 242.411M157.631 242.411C153.215 246.078 146.242 242.989 145.698 239.906" stroke="#ABD765" stroke-width="3"/>
<path d="M139.861 18.6839C138.858 18.2596 137.746 18.4409 136.77 18.9247C117.958 28.2449 82.2337 47.6607 77.6375 58.3918C76.8545 60.2201 78.5903 61.6942 80.5628 61.9459C91.9111 63.394 109.887 67.3372 110.831 74.3221C112.09 83.6443 66.2243 79.9291 56.7046 84.0785C56.1479 84.3211 55.5889 84.5729 55.0014 84.7267C40.5394 88.5128 29.3891 104.004 56.9278 111.788C92.0561 121.719 102.764 110.254 98.7658 119.894C95.5673 127.606 47.2299 128.934 26.9984 140.36C15.0978 147.081 0.849525 162.581 39.0615 170.817C77.2735 179.054 101.215 179.734 108.41 179.045L113.698 151.933C114.056 150.094 115.406 148.539 117.265 148.298C126.485 147.101 132.763 154.35 125.757 182.406L192.128 200.472C204.897 202.946 223.474 191.058 203.327 166.461C203.155 166.251 202.963 166.052 202.758 165.875C184.181 149.809 149.665 127.368 139.263 113.159C125.047 93.7403 165.241 129.648 180.547 132.613C195.854 135.579 225.418 136.639 207.786 120.185C199.335 112.299 177.583 97.6696 167.43 93.6195C157.277 89.5695 136.672 79.745 135.475 72.8476C133.98 64.2258 184.107 89.5599 185.477 82.5348C186.573 76.9147 172.776 62.202 166.263 53.8161C159.057 44.5388 149.197 22.6333 139.861 18.6839Z" fill="#ABD765"/>
<path d="M108.41 179.045C101.215 179.734 77.2735 179.054 39.0615 170.817C0.849524 162.581 15.0978 147.081 26.9984 140.36C47.2299 128.934 95.5673 127.606 98.7658 119.894C102.764 110.253 92.0561 121.719 56.9278 111.788C29.3891 104.004 40.5394 88.5128 55.0014 84.7267C55.5889 84.5729 56.1479 84.3211 56.7046 84.0785C66.2243 79.9291 112.09 83.6443 110.831 74.3221C109.887 67.3372 91.9111 63.394 80.5628 61.9459C78.5903 61.6942 76.8545 60.2201 77.6375 58.3918C82.2337 47.6607 117.958 28.2449 136.77 18.9247C137.746 18.4409 138.858 18.2596 139.861 18.6839C149.197 22.6333 159.057 44.5388 166.263 53.8161C172.776 62.202 186.573 76.9147 185.477 82.5348C184.107 89.5599 133.98 64.2258 135.475 72.8476C136.672 79.745 157.277 89.5695 167.43 93.6195C177.583 97.6696 199.335 112.299 207.786 120.185C225.418 136.639 195.854 135.579 180.547 132.613C165.241 129.648 125.047 93.7403 139.263 113.159C149.665 127.368 184.181 149.809 202.758 165.875C202.963 166.052 203.155 166.251 203.327 166.461C223.474 191.058 204.897 202.946 192.128 200.472L125.757 182.406M108.41 179.045L113.698 151.933C114.056 150.094 115.406 148.539 117.265 148.298C126.485 147.102 132.763 154.35 125.757 182.406M108.41 179.045L102.342 210.156L97.232 236.36C96.7034 239.071 98.4726 241.693 101.184 242.219L106.744 243.296C108.989 243.731 111.061 242.597 111.623 240.38C113.944 231.223 119.741 206.5 125.757 182.406" stroke="#ABD765" stroke-width="3"/>
<path d="M194.641 221.678C196.911 222.009 198.746 219.845 197.893 217.717C190.259 198.666 179.005 204.3 171.705 212.505C169.649 214.815 171.195 218.264 174.254 218.71L194.641 221.678Z" fill="#ABD765"/>
<path d="M174.254 218.71V218.71C171.195 218.264 169.649 214.815 171.705 212.505C179.005 204.3 190.259 198.666 197.893 217.717C198.746 219.845 196.911 222.009 194.641 221.678V221.678M174.254 218.71L170.796 236.442C170.415 238.396 171.218 240.41 172.951 241.388C178.398 244.46 186.498 247.377 190.152 242.827C190.518 242.371 190.716 241.806 190.828 241.231L194.641 221.678M174.254 218.71L194.641 221.678" stroke="#ABD765" stroke-width="3"/>
</svg>
