<svg width="204" height="232" viewBox="0 0 204 232" fill="none" xmlns="http://www.w3.org/2000/svg">
<path fill-rule="evenodd" clip-rule="evenodd" d="M124.999 216.747L128.441 216.732L140.964 216.747H144.697C145.931 216.747 146.792 215.672 146.329 214.671C138.551 197.852 128.614 206.417 123.462 214.555C122.827 215.558 123.687 216.747 124.999 216.747Z" fill="#ABD765"/>
<path d="M128.441 216.732L124.999 216.747M128.441 216.732L144.697 216.747M128.441 216.732L140.964 216.747M128.441 216.732V216.747M140.964 216.747H144.697M140.964 216.747V226.466M140.964 216.747H128.441M146.329 214.671C138.551 197.852 128.614 206.417 123.462 214.555M146.329 214.671C146.792 215.672 145.931 216.747 144.697 216.747M146.329 214.671V214.671C146.783 215.653 146.046 216.747 144.964 216.747H144.697M123.462 214.555C122.827 215.558 123.687 216.747 124.999 216.747M123.462 214.555V214.555C122.848 215.525 123.572 216.747 124.72 216.747H124.999M124.999 216.747H128.441M144.697 216.747H128.441M128.441 226.721C128.441 226.85 128.456 226.978 128.503 227.1M128.441 226.721V226.721C128.441 226.85 128.457 226.978 128.502 227.098C128.503 227.099 128.503 227.099 128.503 227.1M128.441 226.721V216.747M140.964 226.466C140.964 226.759 140.873 227.05 140.678 227.289M140.964 226.466V226.466C140.964 226.758 140.876 227.045 140.692 227.272C140.687 227.277 140.683 227.283 140.678 227.289M140.678 227.289C137.051 231.729 129.625 230.023 128.503 227.1" stroke="#ABD765" stroke-width="3"/>
<path d="M99.1224 2.18503C98.0541 1.957 96.9949 2.34872 96.1278 3.01291C79.4698 15.7725 48.1702 41.6874 45.7172 53.123C45.2994 55.0707 47.2878 56.1904 49.2755 56.0618C60.6763 55.3243 79.038 55.7795 81.297 62.4712C84.3127 71.4048 38.6506 76.493 30.1108 82.3911C29.6107 82.7365 29.1102 83.0913 28.5627 83.3552C15.1124 89.8389 7.14652 107.208 35.6256 109.618C71.9551 112.693 80.2588 99.3689 78.1828 109.618C76.5221 117.818 29.3976 128.34 11.7517 143.441C1.37196 152.324 -9.6305 170.294 29.3976 171.114C68.4258 171.934 92.0228 168.04 98.9427 165.99V138.288C98.9427 136.417 99.9665 134.636 101.741 134.044C110.551 131.107 118.092 137.041 116.589 165.99L185.096 171.114C198.083 171.114 214.019 155.874 189.571 135.51C189.363 135.336 189.135 135.176 188.9 135.041C167.621 122.773 129.501 107.269 116.589 95.2691C98.9427 78.8702 145.203 106.543 160.773 106.543C176.343 106.543 205.523 101.95 185.096 89.1195C175.305 82.9699 151.188 72.7206 140.462 70.6707C129.736 68.6208 107.662 62.8812 105.171 56.3216C102.057 48.1221 156.032 63.4961 156.032 56.3216C156.032 50.582 139.696 38.7338 131.709 31.7231C122.875 23.9691 109.028 4.29954 99.1224 2.18503Z" fill="#ABD765"/>
<path d="M98.9427 165.99C92.0228 168.04 68.4258 171.934 29.3976 171.114C-9.6305 170.294 1.37196 152.324 11.7517 143.441C29.3977 128.34 76.5221 117.818 78.1828 109.618C80.2588 99.3689 71.9551 112.693 35.6256 109.618C7.14652 107.208 15.1124 89.8389 28.5627 83.3552C29.1102 83.0913 29.6107 82.7365 30.1108 82.3911C38.6506 76.493 84.3127 71.4048 81.297 62.4712C79.038 55.7795 60.6763 55.3243 49.2755 56.0618C47.2878 56.1904 45.2994 55.0707 45.7172 53.123C48.1702 41.6874 79.4698 15.7725 96.1278 3.01291C96.9949 2.34872 98.0541 1.957 99.1224 2.18503C109.028 4.29954 122.875 23.9691 131.709 31.7231C139.696 38.7338 156.032 50.582 156.032 56.3216C156.032 63.4961 102.057 48.1221 105.171 56.3216C107.662 62.8812 129.736 68.6208 140.462 70.6707C151.188 72.7206 175.305 82.9699 185.096 89.1195C205.523 101.95 176.343 106.543 160.773 106.543C145.203 106.543 98.9427 78.8702 116.588 95.2691C129.501 107.269 167.621 122.773 188.9 135.041C189.135 135.176 189.363 135.336 189.571 135.51C214.019 155.874 198.083 171.114 185.096 171.114L116.588 165.99M98.9427 165.99V138.288C98.9427 136.417 99.9665 134.636 101.741 134.044C110.551 131.107 118.092 137.041 116.588 165.99M98.9427 165.99V197.763V224.536C98.9427 227.297 101.181 229.536 103.943 229.536H109.583C111.871 229.536 113.689 228.026 113.816 225.741C114.341 216.292 115.297 190.852 116.588 165.99" stroke="#ABD765" stroke-width="3"/>
<path d="M174.351 204.776C176.64 204.668 178.025 202.199 176.784 200.273C165.656 183.016 155.7 190.693 150.113 200.138C148.541 202.796 150.717 205.883 153.801 205.739L174.351 204.776Z" fill="#ABD765"/>
<path d="M153.801 205.739V205.739C150.717 205.883 148.541 202.796 150.113 200.138C155.7 190.693 165.656 183.016 176.784 200.273C178.025 202.199 176.64 204.668 174.351 204.776V204.776M153.801 205.739V223.804C153.801 225.794 154.974 227.618 156.861 228.248C162.788 230.228 171.283 231.549 173.994 226.389C174.266 225.871 174.351 225.279 174.351 224.695V204.776M153.801 205.739L174.351 204.776" stroke="#ABD765" stroke-width="3"/>
</svg>
