<svg width="208" height="82" viewBox="0 0 208 82" fill="none" xmlns="http://www.w3.org/2000/svg">
<path fill-rule="evenodd" clip-rule="evenodd" d="M24.3201 0.0967385C22.7246 0.343439 21.5749 0.857538 20.6367 1.74373C19.5682 2.75309 18.9749 3.96283 18.6434 5.80823C18.4798 6.71915 18.4843 10.5362 18.6505 11.7498C18.9528 13.9575 19.6479 15.7752 20.915 17.6718C21.1782 18.0655 22.3954 19.6609 23.6201 21.2171C26.1894 24.4818 26.6072 25.0333 27.0581 25.7552C27.8583 27.0361 28.1077 27.8786 28.2072 29.6359C28.2811 30.9409 28.2347 32.5547 28.1033 33.2451C27.8689 34.4774 27.36 34.9543 26.2685 34.9646C25.7771 34.9692 25.6771 34.9491 25.3371 34.7768C25.0587 34.6356 24.9001 34.5006 24.748 34.2753C24.3107 33.6276 24.321 33.7398 24.2835 29.2526L24.2495 25.1963L21.2109 25.1797L18.1723 25.1631L18.1954 29.9067C18.2211 35.2014 18.2161 35.134 18.6838 36.5097C19.0427 37.5654 19.38 38.1122 20.1384 38.8671C21.037 39.7617 21.8164 40.191 23.1528 40.5273C24.0222 40.7461 24.7487 40.8143 26.2088 40.8143C27.6688 40.8143 28.3953 40.7461 29.2648 40.5273C31.5793 39.9448 33.2603 38.3677 34.0648 36.0238C34.6174 34.4137 34.7203 33.5661 34.72 30.626C34.7198 28.123 34.6862 27.636 34.4248 26.3461C34.1288 24.8855 33.5127 23.4717 32.5169 21.9681C31.9429 21.1013 31.4208 20.4126 28.3296 16.4449C25.8255 13.2307 25.3186 12.4131 24.9615 11.0123C24.7989 10.3744 24.7117 9.1171 24.7533 8.01283C24.8129 6.4331 25.0203 5.87205 25.6615 5.55578C25.9268 5.42489 26.073 5.39864 26.5283 5.40023C27.1656 5.40241 27.4884 5.53138 27.8011 5.90871C28.204 6.3947 28.217 6.51793 28.248 10.1687L28.2761 13.4745H31.2305H34.185L34.1547 9.46607C34.1305 6.27014 34.1047 5.35309 34.0277 4.94177C33.6142 2.73271 32.7845 1.50214 31.1872 0.728694C30.5341 0.412429 29.6636 0.16988 28.8104 0.0664594C27.9894 -0.0330642 25.0309 -0.0131336 24.3201 0.0967385ZM0 20.3734V40.3676H3.08338H6.16677V31.5842V22.8008H8.22236H10.2779V31.5842V40.3676H13.3613H16.4447V20.3734V0.379275H13.3613H10.2779V8.36416V16.349H8.22236H6.16677V8.36416V0.379275H3.08338H0V20.3734ZM36.4867 20.3734V40.3676H43.5849H50.6831V37.3333V34.2991H46.6362H42.5893V28.518V22.737H45.6405H48.6918V19.7027V16.6684H45.6405H42.5893V11.4304V6.19227H46.4756H50.362V3.28577V0.379275H43.4243H36.4867V20.3734ZM61.3812 0.459124C61.3671 0.503073 60.2682 9.40699 58.9392 20.2457C57.6102 31.0844 56.5064 40.0458 56.4865 40.16L56.4502 40.3676H59.2048H61.9595L62.3358 36.8383C62.5428 34.8971 62.7266 33.2155 62.7443 33.1013L62.7766 32.8937H64.9843C66.7075 32.8937 67.1922 32.9112 67.1925 32.9736C67.1927 33.0175 67.3659 34.6488 67.5775 36.5987C67.7891 38.5486 67.9624 40.1943 67.9626 40.2558C67.9629 40.3606 68.1466 40.3676 70.9179 40.3676C73.7742 40.3676 73.8728 40.3636 73.8728 40.2467C73.8728 40.1802 72.702 31.1939 71.2712 20.2772C69.8403 9.36048 68.6696 0.417539 68.6696 0.403997C68.6696 0.39039 67.0354 0.379275 65.0382 0.379275C62.1894 0.379275 61.4012 0.396459 61.3812 0.459124ZM74.8363 20.3712V40.3676H77.9197H81.0031V31.4506V22.5336L82.2397 22.5606C83.6961 22.5926 83.9475 22.6561 84.331 23.0893C84.78 23.5966 84.7511 23.0884 84.7958 31.2648C84.8396 39.2835 84.8293 39.0562 85.1903 39.9609L85.3398 40.3356L88.4067 40.3522C91.9273 40.3713 91.5946 40.4465 91.3103 39.6954C90.9115 38.6418 90.938 39.2465 90.8973 30.2747C90.8604 22.1258 90.8591 22.0627 90.7221 21.5796C90.3675 20.3298 89.7242 19.5312 88.5632 18.8994L88.2542 18.7312L88.4621 18.6456C88.7811 18.5142 89.393 17.9981 89.741 17.567C90.1212 17.0959 90.3843 16.5626 90.5975 15.831C90.8841 14.8476 90.9068 14.3425 90.8789 9.57786C90.8537 5.27037 90.8487 5.11936 90.71 4.50382C90.1951 2.21899 89.0656 1.05722 86.8487 0.53201C86.4085 0.42776 85.8686 0.416006 80.6016 0.396331L74.8363 0.37474V20.3712ZM91.9876 3.28577V6.19227H94.5571H97.1266V23.2799V40.3676H100.178H103.229V23.2799V6.19227H105.799H108.368V3.28577V0.379275H100.178H91.9876V3.28577ZM118.967 0.422522C118.967 0.446349 117.869 9.39434 116.526 20.3071C115.184 31.2197 114.085 40.1976 114.085 40.2579C114.085 40.3599 114.278 40.3676 116.815 40.3676C118.317 40.3676 119.547 40.3461 119.549 40.3197C119.551 40.2933 119.733 38.6189 119.952 36.5987L120.351 32.9257H122.564H124.777L125.177 36.6307C125.397 38.6684 125.579 40.3428 125.58 40.3516C125.582 40.3604 126.917 40.3676 128.547 40.3676H131.51L131.477 40.1919C131.46 40.0953 130.278 31.098 128.852 20.1978L126.258 0.379467L122.613 0.379339C120.608 0.379339 118.967 0.398759 118.967 0.422522ZM132.457 20.3734V40.3676H135.219H137.981L137.997 28.9636L138.014 17.5595L140.904 28.9629L143.795 40.3663L146.316 40.3669L148.838 40.3676V20.3734V0.379275H146.011H143.185L143.181 10.9672L143.177 21.5552L140.61 11.079C139.199 5.31713 138.028 0.552515 138.008 0.491064C137.975 0.386877 137.785 0.379275 135.215 0.379275H132.457V20.3734ZM151.022 20.3734V40.3676L156.209 40.3673C161.909 40.3671 162.043 40.3595 163.193 39.9786C164.084 39.6834 164.651 39.3347 165.314 38.6743C166.131 37.8618 166.597 37.0082 166.923 35.7309C167.285 34.3143 167.274 34.8017 167.272 20.1945C167.271 5.77578 167.278 6.11977 166.952 4.84941C166.641 3.63826 166.154 2.7177 165.455 2.02269C164.846 1.41699 164.184 1.03423 163.227 0.734188C162.135 0.391796 161.904 0.380042 156.241 0.379658L151.022 0.379275V20.3734ZM83.6545 5.94001C83.9716 6.04861 84.3813 6.40148 84.5325 6.69621C84.7683 7.15582 84.7932 7.58388 84.792 11.1706C84.7908 14.8884 84.7698 15.188 84.4696 15.7833C84.2784 16.1626 84.0499 16.3936 83.6689 16.5929C83.3625 16.7531 83.2939 16.762 82.1754 16.7846L81.0031 16.8084V11.3018V5.7952L82.2075 5.82612C82.9477 5.84509 83.5055 5.88897 83.6545 5.94001ZM159.565 5.87875C159.993 5.97004 160.388 6.27531 160.612 6.68676C160.993 7.38885 160.978 6.87131 160.978 20.1395C160.978 28.0804 160.955 32.4307 160.912 32.7021C160.827 33.2375 160.522 33.859 160.224 34.1034C159.812 34.4417 159.518 34.508 158.296 34.5391L157.188 34.5672V20.1881V5.809H158.213C158.777 5.809 159.385 5.84036 159.565 5.87875ZM65.7128 19.4791C66.1378 23.3614 66.4855 26.6168 66.4855 26.7134V26.8891H64.9228H63.3601L63.3825 26.7134C63.4292 26.348 64.8798 12.5475 64.8846 12.4231C64.8874 12.3514 64.901 12.3215 64.9149 12.3566C64.9288 12.3917 65.2878 15.5969 65.7128 19.4791ZM123.335 19.7281C123.759 23.6067 124.106 26.8047 124.106 26.8347C124.106 26.8646 123.395 26.8891 122.525 26.8891H120.944L120.981 26.6176C121.002 26.4683 121.339 23.2847 121.731 19.543C122.122 15.8013 122.46 12.668 122.483 12.5802C122.537 12.3682 122.457 11.6985 123.335 19.7281ZM39.8655 40.9122C36.4771 41.4556 34.6245 43.3816 34.1383 46.8663C33.9962 47.8845 34.037 51.7973 34.2003 52.824C34.6474 55.634 35.5474 57.4785 37.9714 60.5534C42.1334 65.8325 42.5731 66.4297 43.0823 67.4936C43.6455 68.6704 43.772 69.5725 43.7279 72.0986C43.6883 74.364 43.5775 74.856 42.9877 75.386C42.6482 75.691 42.3369 75.7885 41.7179 75.7835C40.5816 75.7746 39.9898 75.1308 39.8282 73.7276C39.7928 73.4207 39.7637 71.5669 39.7633 69.6082L39.7628 66.047H36.7437H33.7245V70.5582C33.7245 74.3036 33.7414 75.1827 33.8241 75.7363C34.2795 78.7859 35.8804 80.6518 38.6385 81.3476C39.6093 81.5925 40.3905 81.6518 42.1627 81.6153C43.4875 81.588 43.8924 81.5573 44.4164 81.4443C47.652 80.746 49.5116 78.5287 50.1164 74.6482C50.2407 73.8504 50.2574 73.486 50.259 71.5406C50.2618 68.0338 49.9964 66.494 49.0538 64.5458C48.3684 63.1295 47.9076 62.4756 44.6427 58.2857C43.356 56.6344 42.0653 54.9326 41.7744 54.504C40.8863 53.1953 40.4908 52.2373 40.3433 51.037C40.2573 50.338 40.2582 48.312 40.3447 47.7818C40.5274 46.6622 41.0023 46.2262 42.0446 46.2213C42.87 46.2174 43.3183 46.5018 43.5985 47.207C43.6997 47.4617 43.7131 47.8317 43.7314 50.8917L43.7518 54.2932H46.7074H49.6629L49.6384 50.1251C49.6154 46.1898 49.6066 45.9249 49.4813 45.3821C48.8861 42.8039 47.6317 41.5645 45.0459 40.9999C44.4973 40.8801 44.1742 40.8606 42.4287 40.8419C40.9202 40.8257 40.2986 40.8428 39.8655 40.9122ZM66.1964 40.9044C64.535 41.1749 63.3274 41.7698 62.3419 42.8031C61.126 44.0781 60.4661 45.765 60.252 48.1465C60.2067 48.6497 60.1918 53.2972 60.2065 62.31L60.2283 75.7247L60.3688 76.3598C60.9117 78.8161 62.0488 80.438 63.7912 81.2415C64.6544 81.6396 65.0802 81.7239 66.2285 81.7239C67.1889 81.724 67.2464 81.7164 67.8501 81.5111C68.1943 81.394 68.7064 81.1572 68.9881 80.9848C70.1124 80.2968 71.3741 78.8388 71.8533 77.6738L71.9974 77.3233L72.0994 77.6738C72.1556 77.8666 72.3854 78.7286 72.6101 79.5893L73.0188 81.1544L74.7628 81.1714L76.5068 81.1884L76.4906 69.0343L76.4744 56.8803H72.2026H67.9308V59.9465V63.0127L69.2959 63.03L70.6609 63.0472V68.3731C70.6609 73.5052 70.6563 73.7138 70.5335 74.105C70.3562 74.6699 70.009 75.1015 69.5397 75.3402C69.2196 75.5031 69.0721 75.5365 68.5885 75.5556C67.8984 75.5827 67.576 75.4809 67.1985 75.1166C66.8927 74.8215 66.7301 74.523 66.5707 73.9641C66.4589 73.5721 66.4534 72.9659 66.4534 61.0963C66.4534 50.8653 66.4688 48.5714 66.5401 48.2566C66.6607 47.7241 66.9777 47.1552 67.2717 46.9434C68.0346 46.3938 69.3875 46.6008 69.8432 47.3367C70.2124 47.9332 70.2273 48.069 70.2584 51.1152L70.287 53.9099H73.2761H76.2653L76.2309 50.7958C76.1941 47.4686 76.1489 46.878 75.8305 45.5542C75.2106 42.9774 73.7683 41.5736 71.1427 40.9917C70.6506 40.8826 70.2777 40.8603 68.6374 40.8421C67.2605 40.8268 66.5636 40.8446 66.1964 40.9044ZM108.754 40.8591C105.943 41.1584 103.973 42.5867 103.126 44.9387C102.634 46.3051 102.485 47.6233 102.543 50.0772C102.615 53.107 102.969 54.791 103.953 56.7784C104.555 57.9962 105.258 58.9875 107.85 62.2781C110.45 65.5794 111.117 66.5089 111.588 67.4843C112.15 68.6498 112.327 69.9067 112.27 72.3071C112.225 74.1942 112.037 74.9453 111.493 75.4202C111.182 75.6916 110.861 75.7873 110.263 75.7871C109.327 75.7868 108.793 75.3886 108.472 74.4534C108.343 74.0778 108.338 73.9196 108.318 70.0554L108.298 66.047H105.245H102.193L102.22 70.7261C102.249 75.7349 102.248 75.7132 102.595 76.9703C102.748 77.5265 103.188 78.4863 103.492 78.93C104.207 79.9722 105.355 80.7935 106.674 81.2071C107.791 81.5575 108.184 81.601 110.231 81.6013C112.299 81.6015 112.659 81.5636 113.7 81.2355C114.864 80.8686 115.649 80.3903 116.469 79.5483C117.731 78.2531 118.464 76.428 118.713 73.9575C118.823 72.8687 118.759 68.921 118.617 67.9998C118.272 65.7643 117.516 64.0449 115.927 61.8805C115.637 61.4843 114.458 59.9529 113.308 58.4773C111.02 55.5407 110.442 54.7761 110.071 54.1974C109.629 53.5077 109.198 52.577 109.028 51.9441C108.875 51.3732 108.86 51.1922 108.833 49.7132C108.8 47.8422 108.853 47.3825 109.16 46.8753C109.456 46.3856 109.812 46.217 110.549 46.217C111.049 46.217 111.138 46.2363 111.454 46.4133C111.885 46.6546 112.126 47.0722 112.221 47.7456C112.256 47.9915 112.285 49.5653 112.285 51.243L112.287 54.2932H115.246H118.206L118.178 50.2209C118.148 45.7699 118.144 45.7259 117.747 44.5042C117.459 43.6188 117.109 43.0402 116.493 42.4326C116.047 41.9923 115.859 41.86 115.297 41.5888C114.014 40.9689 113.064 40.813 110.649 40.8261C109.73 40.8311 108.877 40.846 108.754 40.8591ZM126.547 40.8483C126.494 40.8587 126.234 40.9018 125.969 40.9442C124.536 41.1733 123.281 41.8126 122.363 42.7804C121.847 43.3236 121.631 43.6303 121.297 44.2961C120.812 45.2598 120.507 46.4034 120.385 47.7137C120.292 48.7156 120.29 73.3096 120.383 74.4475C120.576 76.8154 121.222 78.4859 122.424 79.7308C123.434 80.777 124.725 81.3753 126.462 81.6016C127.316 81.713 129.502 81.7293 130.368 81.6306C132.82 81.3513 134.635 80.1184 135.576 78.094C135.999 77.1833 136.296 76.0578 136.437 74.8303C136.477 74.4827 136.503 72.1781 136.504 69.0007L136.504 63.746L133.501 63.7627L130.498 63.7793L130.466 68.9854L130.434 74.1916L130.28 74.5711C129.947 75.3934 129.248 75.8129 128.339 75.737C127.592 75.6748 127.091 75.2944 126.796 74.5672L126.644 74.1916V61.0631V47.9346L126.858 47.5021C127.194 46.8224 127.738 46.5692 128.691 46.6487C129.523 46.718 130.097 47.1492 130.349 47.894C130.408 48.0666 130.438 49.2132 130.463 52.2171L130.498 56.3054L133.501 56.322L136.504 56.3386V52.0083C136.504 47.3381 136.474 46.7693 136.158 45.5307C135.676 43.6423 134.67 42.3367 133.133 41.6054C131.827 40.9836 130.781 40.8118 128.37 40.8221C127.42 40.8262 126.6 40.838 126.547 40.8483ZM163.154 40.913C159.951 41.4093 158.029 43.2642 157.295 46.5664C156.953 48.1067 156.964 47.6461 156.964 61.1922C156.964 73.1231 156.97 73.8534 157.082 74.6387C157.305 76.1943 157.722 77.4939 158.333 78.534C158.751 79.2446 159.802 80.2864 160.489 80.6714C161.933 81.4797 163.326 81.7407 165.86 81.677C166.927 81.6503 167.466 81.608 167.916 81.5157C170.806 80.9233 172.477 79.2691 173.249 76.2357C173.676 74.5578 173.655 75.2609 173.681 61.8629C173.706 49.2613 173.692 48.3494 173.441 46.9682C172.784 43.3369 170.9 41.4144 167.51 40.9137C166.655 40.7875 163.967 40.7871 163.154 40.913ZM182.145 40.8551C178.566 41.3658 176.627 43.2244 175.888 46.854C175.62 48.1727 175.616 48.381 175.638 61.6074L175.659 74.3193L175.8 75.0859C176.405 78.3832 177.836 80.334 180.27 81.1803C181.47 81.5978 181.949 81.66 183.975 81.6621C185.464 81.6636 185.92 81.6428 186.414 81.5506C189.849 80.9096 191.66 78.7494 192.209 74.6387C192.277 74.1258 192.294 71.4521 192.294 61.0644C192.294 48.9532 192.287 48.083 192.179 47.409C191.853 45.3661 191.251 43.9412 190.276 42.9077C189.318 41.8931 188.272 41.3374 186.673 40.9949C186.153 40.8835 185.789 40.8616 184.2 40.8459C183.176 40.8359 182.251 40.84 182.145 40.8551ZM0 61.1922V81.1863H5.1948C9.54083 81.1863 10.4828 81.1705 10.9601 81.0895C13.9458 80.5832 15.5376 78.8623 16.1013 75.5311C16.214 74.8648 16.2199 74.1516 16.2199 61.0325C16.2199 47.8866 16.2142 47.2029 16.1009 46.5646C15.7798 44.7554 15.2429 43.6248 14.2802 42.7304C13.479 41.9859 12.5229 41.5491 11.2039 41.3248C10.5016 41.2054 10.1516 41.198 5.22897 41.198H0V61.1922ZM18.3718 61.1922V81.1863H25.5022H32.6325V78.1521V75.1178H28.5855H24.5386V69.3367V63.5557H27.5899H30.6411V60.5214V57.4872H27.5899H24.5386V52.2491V47.011H28.425H32.3113V44.1045V41.198H25.3416H18.3718V61.1922ZM51.9679 61.1922V81.1863H55.0513H58.1347V61.1922V41.198H55.0513H51.9679V61.1922ZM78.5621 61.1922V81.1863H81.3562H84.1503L84.1666 69.841L84.1828 58.4958L87.0055 69.6334C88.5581 75.7592 89.853 80.8646 89.8832 80.9787L89.9381 81.1863H92.4403H94.9426V61.1922V41.198H92.1482H89.3539L89.35 51.8498L89.3461 62.5017L86.7488 51.8978C85.3203 46.0656 84.1514 41.2723 84.1511 41.2459C84.1509 41.2195 82.8933 41.198 81.3564 41.198H78.5621V61.1922ZM138.431 61.1922V81.1863H141.515H144.598V72.4029V63.6196H146.653H148.709V72.4029V81.1863H151.792H154.876V61.1922V41.198H151.792H148.709V49.1829V57.1678H146.653H144.598V49.1829V41.198H141.515H138.431V61.1922ZM194.446 61.1922V81.1863H201.223H208V78.0882V74.99H204.274H200.548V58.094V41.198H197.497H194.446V61.1922ZM8.8716 46.8281C9.46702 47.1049 9.76084 47.6198 9.8915 48.6154C9.94083 48.9914 9.95612 52.7763 9.94289 61.3199C9.92509 72.7837 9.91732 73.5111 9.80928 73.8722C9.6183 74.5105 9.3273 74.8804 8.82105 75.1283C8.38655 75.3411 8.38462 75.3414 7.2764 75.3637L6.16677 75.386V61.0008V46.6155L7.3391 46.6381C8.44488 46.6594 8.53185 46.6702 8.8716 46.8281ZM166.312 46.8585C166.73 47.0848 167.039 47.4794 167.226 48.0269L167.37 48.4483L167.388 60.9686C167.401 69.8616 167.386 73.6092 167.336 73.9041C167.121 75.1639 166.363 75.8232 165.222 75.742C164.2 75.6693 163.599 75.118 163.306 73.9845C163.202 73.5818 163.195 72.7209 163.195 61.1602C163.195 49.5917 163.202 48.7389 163.306 48.3352C163.508 47.5553 163.8 47.1175 164.287 46.8669C164.673 46.6679 164.878 46.6305 165.452 46.6547C165.88 46.6726 166.038 46.7099 166.312 46.8585ZM184.82 46.7741C185.152 46.9119 185.551 47.2914 185.712 47.6223C186.084 48.3859 186.058 47.4698 186.08 60.8408C186.094 69.4345 186.079 73.2652 186.03 73.6387C185.901 74.6247 185.578 75.2134 184.99 75.5368C184.681 75.707 184.594 75.7241 184.04 75.7244C183.501 75.7247 183.386 75.7037 183.063 75.5457C182.655 75.3464 182.44 75.1248 182.201 74.6552C181.844 73.9544 181.855 74.4072 181.856 61.2025C181.856 53.3536 181.879 48.8756 181.921 48.608C182.138 47.2129 182.836 46.5879 184.105 46.6528C184.37 46.6664 184.693 46.721 184.82 46.7741Z" fill="#ABD765"/>
</svg>
