<svg width="276" height="465" viewBox="0 0 276 465" fill="none" xmlns="http://www.w3.org/2000/svg">
<path fill-rule="evenodd" clip-rule="evenodd" d="M260.951 299.107C275.82 266.212 289.717 205.7 232.014 216.567C228.539 217.221 225.236 214.422 225.604 210.91C230.956 159.882 229.518 83.0271 187.139 121.655C184.351 124.196 179.691 123.292 178.385 119.755C160.123 70.298 123.318 1.74285 110.668 1.7429C98.6251 0.246526 75.6654 22.5035 80.0369 123.417C80.0486 123.688 80.0908 123.999 80.1421 124.266C82.9301 138.738 69.8072 137.971 55.2821 137.122C35.2091 135.95 12.4583 134.62 25.3223 173.138C29.8524 186.702 34.6641 197.4 38.5025 205.934C45.66 221.847 49.4338 230.237 41.6887 235.659C41.3071 235.926 40.8457 236.128 40.3995 236.262C-13.701 252.511 0.953718 284.892 15.1179 299.107C44.4355 332.247 110.889 372.091 171 366.208C205.991 362.783 238.834 343.863 260.951 299.107Z" fill="#ABD765"/>
<path d="M171 366.208C110.889 372.091 44.4355 332.247 15.1179 299.107C0.953718 284.892 -13.701 252.511 40.3995 236.262M171 366.208C205.991 362.783 238.834 343.863 260.951 299.107C275.82 266.212 289.717 205.7 232.014 216.567M171 366.208C179.114 397.864 192.509 461.476 181.171 462.674H179.381M171 366.208C180.802 410.919 177.977 438.523 173.211 452.666M232.014 216.567C228.539 217.221 225.236 214.422 225.604 210.91M232.014 216.567C231.988 216.572 231.963 216.577 231.937 216.582C228.477 217.236 225.237 214.412 225.604 210.91V210.91M179.381 462.674C175.028 462.674 171.823 456.785 173.211 452.666M179.381 462.674V462.674C175.04 462.674 171.825 456.779 173.211 452.666V452.666M40.3995 236.262C40.8457 236.128 41.3071 235.926 41.6887 235.659M40.3995 236.262C40.4064 236.26 40.4133 236.258 40.4202 236.256C40.866 236.122 41.2953 235.934 41.6768 235.668C41.6808 235.665 41.6847 235.662 41.6887 235.659M41.6887 235.659C49.4338 230.237 45.66 221.847 38.5025 205.934C34.6641 197.4 29.8524 186.702 25.3223 173.138C12.4583 134.62 35.2091 135.95 55.2821 137.122C69.8072 137.971 82.9301 138.738 80.1421 124.266M80.1421 124.266C80.0908 123.999 80.0486 123.688 80.0369 123.417M80.1421 124.266C80.1401 124.255 80.138 124.245 80.136 124.234C80.0842 123.967 80.049 123.697 80.0372 123.425C80.0371 123.423 80.037 123.42 80.0369 123.417M80.0369 123.417C75.6654 22.5035 98.6251 0.246526 110.668 1.7429C123.318 1.74285 160.123 70.2981 178.385 119.755M178.385 119.755C179.691 123.292 184.351 124.196 187.139 121.655M178.385 119.755V119.755C179.689 123.286 184.282 124.265 187.061 121.726C187.087 121.702 187.113 121.679 187.139 121.655M187.139 121.655C229.518 83.0271 230.956 159.882 225.604 210.91" stroke="#ABD765" stroke-width="3"/>
</svg>
