<svg width="1101" height="1203" viewBox="0 0 1101 1203" fill="none" xmlns="http://www.w3.org/2000/svg">
<rect x="505.332" y="69.4648" width="53" height="22" rx="3.5" stroke="#ABD765" stroke-width="3"/>
<rect x="1.5" y="1.70703" width="621" height="1044" rx="3.5" stroke="#ABD765" stroke-width="3"/>
<circle cx="313" cy="739.207" r="70.5" stroke="#ABD765" stroke-width="3"/>
<circle cx="312" cy="739.207" r="193.5" stroke="#ABD765" stroke-width="3"/>
<rect x="41.5" y="45.707" width="541" height="404" rx="3.5" stroke="#ABD765" stroke-width="3"/>
<rect x="61.5" y="118.762" width="216" height="261" rx="3.5" fill="#ABD765" stroke="#ABD765" stroke-width="3"/>
<path d="M150 409.207C147.239 409.207 145 411.446 145 414.207V422.207C145 424.968 147.239 427.207 150 427.207H207.958V409.207H150Z" fill="#ABD765"/>
<path d="M207.958 409.207H474C476.761 409.207 479 411.446 479 414.207V422.207C479 424.968 476.761 427.207 474 427.207H207.958M207.958 409.207H150C147.239 409.207 145 411.446 145 414.207V422.207C145 424.968 147.239 427.207 150 427.207H207.958M207.958 409.207V427.207" stroke="#ABD765" stroke-width="3"/>
<path d="M408.837 1045.04C408.837 1094.91 417.582 1173.87 573.723 1177.23M573.723 1177.23C572.121 1168.02 575.404 1149.59 601.348 1149.59C627.145 1149.59 676.06 1149.59 697.67 1149.59C697.921 1149.59 698.156 1149.61 698.402 1149.65C705.1 1150.85 717.338 1157.88 715.451 1177.23M573.723 1177.23C573.723 1192.68 585.116 1199.12 591.258 1200.56C591.579 1200.63 591.893 1200.66 592.222 1200.66C617.628 1200.66 669.748 1200.66 678.818 1200.66C690.228 1200.66 713.049 1201.87 715.451 1177.23M715.451 1177.23H904.622C956.072 1177.23 1057.64 1126.16 1069.17 998.782L1071.84 491.674M715.451 1177.23C771.302 1172.22 882.763 1137.1 881.802 1036.64C880.841 936.175 881.705 746.883 882.105 665.57" stroke="#ABD765" stroke-width="3"/>
<path d="M176.085 194.525C175.049 194.153 173.959 194.564 173.091 195.24C164.458 201.967 149.593 214.467 146.508 221.173C145.672 222.991 147.471 224.208 149.471 224.122C155.723 223.853 164.41 224.33 165.555 227.759C167.174 232.606 143.244 235.413 137.797 238.594C137.27 238.902 136.773 239.252 136.232 239.535C129.078 243.268 125.112 252.604 140.482 253.919C160.427 255.625 164.985 248.232 163.846 253.919C162.934 258.468 137.063 264.306 127.375 272.685C121.677 277.614 115.636 287.584 137.063 288.039C158.489 288.494 171.444 286.333 175.243 285.196V271.167C175.243 269.304 176.252 267.41 178.097 267.152C182.338 266.558 185.68 270.616 184.93 285.196L222.541 288.039C229.645 288.039 238.357 279.644 225.142 268.406C224.934 268.229 224.707 268.069 224.471 267.932C212.759 261.14 191.988 252.585 184.93 245.957C175.243 236.858 200.64 252.212 209.188 252.212C217.735 252.212 233.755 249.664 222.541 242.545C217.166 239.133 203.926 233.446 198.037 232.309C192.149 231.171 180.03 227.987 178.662 224.347C176.952 219.798 206.585 228.328 206.585 224.347C206.585 221.163 197.617 214.589 193.232 210.699C188.599 206.589 181.456 196.448 176.085 194.525Z" fill="#2D491E"/>
<path d="M178.097 267.152C176.252 267.41 175.243 269.304 175.243 271.167V285.196V300.619C175.243 303.094 177.249 305.1 179.724 305.1C181.779 305.1 183.619 303.956 183.823 301.911C184.11 299.024 184.484 293.889 184.93 285.196C185.68 270.616 182.338 266.558 178.097 267.152Z" fill="#2D491E"/>
<path d="M175.243 285.196C171.444 286.333 158.489 288.494 137.063 288.039C115.636 287.584 121.677 277.614 127.375 272.685C137.063 264.306 162.934 258.468 163.846 253.919C164.985 248.232 160.427 255.625 140.482 253.919C125.112 252.604 129.078 243.268 136.232 239.535C136.773 239.252 137.27 238.902 137.797 238.594C143.244 235.413 167.174 232.606 165.555 227.759C164.41 224.33 155.723 223.853 149.471 224.122C147.471 224.208 145.672 222.991 146.508 221.173C149.593 214.467 164.458 201.967 173.091 195.24C173.959 194.564 175.049 194.153 176.085 194.525C181.456 196.448 188.599 206.589 193.232 210.699C197.617 214.589 206.585 221.163 206.585 224.347C206.585 228.328 176.952 219.798 178.662 224.347C180.03 227.987 192.149 231.171 198.037 232.309C203.926 233.446 217.166 239.133 222.541 242.545C233.755 249.664 217.735 252.212 209.188 252.212C200.64 252.212 175.243 236.858 184.93 245.957C191.988 252.585 212.759 261.14 224.471 267.932C224.707 268.069 224.934 268.229 225.142 268.406C238.357 279.644 229.645 288.039 222.541 288.039L184.93 285.196M175.243 285.196V271.167C175.243 269.304 176.252 267.41 178.097 267.152C182.338 266.558 185.68 270.616 184.93 285.196M175.243 285.196V300.619C175.243 303.094 177.249 305.1 179.724 305.1V305.1C181.779 305.1 183.619 303.956 183.823 301.911C184.11 299.024 184.484 293.889 184.93 285.196" stroke="#ABD765" stroke-width="3"/>
<rect x="503.832" y="67.9648" width="45" height="25" rx="5" fill="#ABD765"/>
<path d="M904 665.207H857.445C854.684 665.207 852.445 662.983 852.445 660.222V582.606C852.445 564.699 837.665 562.169 829.936 563.154C829.697 563.185 829.462 563.203 829.221 563.203H751.97C734.161 563.646 721.286 549.414 717.074 542.207C711.506 532.678 711.78 502.776 717.074 487.253C722.369 471.731 742.544 467.48 751.97 467.295H857.86C894.44 465.521 907.195 490.949 909 503.884V660.207C909 662.968 906.761 665.207 904 665.207Z" stroke="#ABD765" stroke-width="3"/>
<path d="M781.506 467.207V562.607" stroke="#ABD765" stroke-width="3"/>
<path d="M1094 490.207H1047.45C1044.68 490.207 1042.45 487.983 1042.45 485.222V407.606C1042.45 389.699 1027.66 387.169 1019.94 388.154C1019.7 388.185 1019.46 388.203 1019.22 388.203H941.97C924.161 388.646 911.286 374.414 907.074 367.207C901.506 357.678 901.78 327.776 907.074 312.253C912.369 296.731 932.544 292.48 941.97 292.295H1047.86C1084.44 290.521 1097.2 315.949 1099 328.884V485.207C1099 487.968 1096.76 490.207 1094 490.207Z" stroke="#ABD765" stroke-width="3"/>
<path d="M971.506 292.207V387.607" stroke="#ABD765" stroke-width="3"/>
</svg>
