<svg width="269" height="469" viewBox="0 0 269 469" fill="none" xmlns="http://www.w3.org/2000/svg">
<path fill-rule="evenodd" clip-rule="evenodd" d="M135 360.484C155.368 370.472 198.379 381.997 207.474 348.191C216.568 314.385 240.632 259.321 251.526 236.016C256.5 227.308 262.042 213.427 244.421 227.564C228.06 240.691 250.454 209.348 266.442 188.398C268.323 185.933 267.473 182.497 264.499 181.272C249.046 174.909 222.534 168.888 207.474 183.002C198.431 191.476 199.234 187.645 201.584 176.435C204.559 162.244 210.012 136.226 201.105 108.379C200.111 105.269 196.15 104.057 193.242 105.854L192.137 106.537C188.606 108.718 183.755 106.45 183.19 102.547C180.719 85.482 172.44 59.1498 152.186 43.5568C151.197 42.7954 150.488 41.7525 150.225 40.5846C142.142 4.63923 133.479 -24.9758 116.382 40.2181C116.028 41.568 115.065 42.7704 113.839 43.566C104.073 49.9015 88.0145 68.3325 85.027 102.1C84.6848 105.968 79.8189 108.136 76.5179 105.756C74.0359 103.967 70.4315 104.688 69.1869 107.367C63.0679 120.54 55.4753 145.454 58.2467 173.096C58.6587 177.205 53.9638 180.501 49.7766 179.12C35.871 174.534 16.3803 171.372 3.95578 179.693C1.55881 181.298 1.75071 184.483 3.83558 186.428C13.8868 195.805 27.5581 211.588 27.2481 223.102C27.1784 225.694 24.2013 227.089 21.4105 227.015C19.6552 226.968 17.7502 227.01 15.9797 227.088C13.8992 227.18 12.7816 226.688 12.6577 226.85C12.5754 226.958 12.9306 227.354 13.7322 228.4C18.9098 235.153 29.9422 258.131 53.2895 328.212C58.2632 349.727 81.5686 386.302 135 360.484Z" fill="#ABD765"/>
<path d="M135 360.484C155.368 370.472 198.379 381.997 207.474 348.191C216.568 314.385 240.632 259.321 251.526 236.016C256.5 227.308 262.042 213.427 244.421 227.564C228.06 240.691 250.454 209.348 266.442 188.398M135 360.484C81.5686 386.302 58.2632 349.727 53.2895 328.212C29.9422 258.131 18.9098 235.153 13.7322 228.4M135 360.484C127.556 419.361 132.035 447.522 138.627 459.339M135 360.484C128.716 394.761 119.923 463.83 134.889 466.558M138.627 459.339C139.359 460.652 136.703 466.577 135.112 466.577M138.627 459.339V459.339C139.331 460.602 136.965 466.577 135.519 466.577H135.112M135.112 466.577C135.037 466.577 134.962 466.572 134.889 466.558M135.112 466.577V466.577C135.037 466.577 134.962 466.572 134.889 466.558V466.558M13.7322 228.4C12.9306 227.354 12.5754 226.958 12.6577 226.85C12.7816 226.688 13.8992 227.18 15.9797 227.088M13.7322 228.4C13.6805 228.332 13.6294 228.266 13.5788 228.202C11.5936 225.679 12.2818 227.266 15.4883 227.111C15.6508 227.103 15.8146 227.096 15.9797 227.088M15.9797 227.088C17.7502 227.01 19.6552 226.968 21.4105 227.015M21.4105 227.015C24.2013 227.089 27.1784 225.694 27.2481 223.102M21.4105 227.015C21.6011 227.02 21.79 227.026 21.9768 227.033C24.4709 227.13 27.13 225.834 27.2397 223.34C27.2432 223.261 27.246 223.182 27.2481 223.102M27.2481 223.102C27.5581 211.588 13.8868 195.805 3.83558 186.428M3.83558 186.428C1.75071 184.483 1.55881 181.298 3.95578 179.693M3.83558 186.428V186.428C1.79643 184.526 1.63864 181.245 3.95578 179.693V179.693M3.95578 179.693C16.3803 171.372 35.871 174.534 49.7766 179.12M49.7766 179.12C53.9638 180.501 58.6587 177.205 58.2467 173.096M49.7766 179.12C50.0547 179.212 50.3306 179.304 50.6041 179.397C54.466 180.707 58.686 177.39 58.2707 173.333C58.2627 173.254 58.2547 173.175 58.2467 173.096M58.2467 173.096C55.4753 145.454 63.0679 120.54 69.1869 107.367M69.1869 107.367C70.4315 104.688 74.0359 103.967 76.5179 105.756M69.1869 107.367C69.201 107.337 69.2151 107.306 69.2292 107.276C70.4839 104.583 73.8641 103.843 76.2741 105.58L76.5179 105.756M76.5179 105.756C79.8189 108.136 84.6848 105.968 85.027 102.1M76.5179 105.756L76.877 106.015C80.1092 108.345 84.6759 106.069 85.027 102.1V102.1M85.027 102.1C88.0145 68.3325 104.073 49.9015 113.839 43.566M113.839 43.566C115.065 42.7704 116.028 41.568 116.382 40.2181M113.839 43.566C113.862 43.5508 113.886 43.5357 113.909 43.5207C115.094 42.7569 116.014 41.6201 116.372 40.2567C116.375 40.2438 116.378 40.231 116.382 40.2181M116.382 40.2181C133.479 -24.9758 142.142 4.63923 150.225 40.5846M150.225 40.5846C150.488 41.7525 151.197 42.7954 152.186 43.5568M150.225 40.5846V40.5846C150.488 41.7531 151.173 42.7794 152.123 43.5088C152.144 43.5248 152.165 43.5408 152.186 43.5568M152.186 43.5568C172.44 59.1498 180.719 85.482 183.19 102.547M183.19 102.547C183.755 106.45 188.606 108.718 192.137 106.537M183.19 102.547C183.209 102.677 183.228 102.807 183.246 102.937C183.782 106.746 188.113 109.023 191.386 107.001L192.137 106.537M192.137 106.537L193.242 105.854M193.242 105.854C196.15 104.057 200.111 105.269 201.105 108.379M193.242 105.854L193.861 105.471C196.512 103.833 200.006 104.991 200.968 107.954C201.014 108.096 201.06 108.237 201.105 108.379M201.105 108.379C210.012 136.226 204.559 162.244 201.584 176.435C199.234 187.645 198.431 191.476 207.474 183.002C222.534 168.888 249.046 174.909 264.499 181.272M264.499 181.272C267.473 182.497 268.323 185.933 266.442 188.398M264.499 181.272C264.562 181.298 264.626 181.324 264.689 181.351C267.484 182.509 268.278 185.993 266.442 188.398V188.398" stroke="#ABD765" stroke-width="3"/>
</svg>
