<svg width="1101" height="432" viewBox="0 0 1101 432" fill="none" xmlns="http://www.w3.org/2000/svg">
<path d="M944.5 85H1024.5" stroke="#ABD765" stroke-width="3" stroke-linecap="round" stroke-linejoin="round"/>
<path d="M944.5 194H984.5" stroke="#ABD765" stroke-width="3" stroke-linecap="round" stroke-linejoin="round"/>
<path d="M944.5 175H989.5" stroke="#ABD765" stroke-width="3" stroke-linecap="round" stroke-linejoin="round"/>
<path d="M944.5 168H974.5" stroke="#ABD765" stroke-width="3" stroke-linecap="round" stroke-linejoin="round"/>
<path d="M944.5 164H974.5" stroke="#ABD765" stroke-width="3" stroke-linecap="round" stroke-linejoin="round"/>
<path d="M944.5 158H984.5" stroke="#ABD765" stroke-width="3" stroke-linecap="round" stroke-linejoin="round"/>
<path d="M944.5 153H994.5" stroke="#ABD765" stroke-width="3" stroke-linecap="round" stroke-linejoin="round"/>
<path d="M944.5 145H989.5" stroke="#ABD765" stroke-width="3" stroke-linecap="round" stroke-linejoin="round"/>
<path d="M944.5 127H989.5" stroke="#ABD765" stroke-width="3" stroke-linecap="round" stroke-linejoin="round"/>
<path d="M944.5 118H974.5" stroke="#ABD765" stroke-width="3" stroke-linecap="round" stroke-linejoin="round"/>
<path d="M944.5 112.998H984.5" stroke="#ABD765" stroke-width="3" stroke-linecap="round" stroke-linejoin="round"/>
<path d="M944.5 104.998H1004.5" stroke="#ABD765" stroke-width="3" stroke-linecap="round" stroke-linejoin="round"/>
<path d="M944.5 96.998H1014.5" stroke="#ABD765" stroke-width="3" stroke-linecap="round" stroke-linejoin="round"/>
<path d="M944.5 91.998H1019.5" stroke="#ABD765" stroke-width="3" stroke-linecap="round" stroke-linejoin="round"/>
<path d="M944.5 236H989.5" stroke="#ABD765" stroke-width="3" stroke-linecap="round" stroke-linejoin="round"/>
<path d="M944.5 252H994.5" stroke="#ABD765" stroke-width="3" stroke-linecap="round" stroke-linejoin="round"/>
<path d="M944.5 218H988.5" stroke="#ABD765" stroke-width="3" stroke-linecap="round" stroke-linejoin="round"/>
<path d="M944.5 214H1004.5" stroke="#ABD765" stroke-width="3" stroke-linecap="round" stroke-linejoin="round"/>
<path d="M944.5 208H1019.5" stroke="#ABD765" stroke-width="3" stroke-linecap="round" stroke-linejoin="round"/>
<path d="M944.5 201H1009.5" stroke="#ABD765" stroke-width="3" stroke-linecap="round" stroke-linejoin="round"/>
<path d="M944.5 323H1020" stroke="#ABD765" stroke-width="3" stroke-linecap="round" stroke-linejoin="round"/>
<path d="M2 401.296V31.564C2 29.0386 3.90481 26.9524 6.35504 26.3408C19.0623 23.1691 24.4846 13.881 26.2497 6.80449C26.905 4.17704 29.1022 2 31.8102 2H825.763C827.962 2 829.886 3.45451 830.645 5.51912C843.339 40.0509 873.612 25.8586 879.143 6.57146C879.866 4.05107 881.996 2 884.618 2H1068.92C1071.73 2 1073.92 4.35313 1074.43 7.12176C1076.53 18.5184 1086.73 23.8556 1094.52 25.7676C1097.02 26.3829 1099 28.5153 1099 31.0961V401.389C1099 404.252 1096.58 406.466 1093.74 406.866C1082 408.523 1076.67 418.006 1074.81 425.429C1074.18 427.968 1072.03 430 1069.41 430H882.637C880.349 430 878.377 428.43 877.663 426.257C867.223 394.492 836.439 403.165 830.313 425.642C829.647 428.085 827.559 430 825.027 430H31.3372C28.5758 430 26.401 427.738 25.8946 425.023C23.7399 413.474 14.1507 408.411 6.70359 406.723C4.10357 406.134 2 403.962 2 401.296Z" stroke="#ABD765" stroke-width="3"/>
<path d="M944 245V240H985V245H944Z" fill="#ABD765" stroke="#ABD765" stroke-width="2" stroke-linecap="round" stroke-linejoin="round"/>
<path d="M944 228V222H987V228H944Z" fill="#ABD765" stroke="#ABD765" stroke-width="2" stroke-linecap="round" stroke-linejoin="round"/>
<path d="M990 282H944V280H990V282Z" stroke="#ABD765" stroke-width="2" stroke-linecap="round" stroke-linejoin="round"/>
<path d="M944 274V266H990V274H944Z" fill="#ABD765" stroke="#ABD765" stroke-width="2" stroke-linecap="round" stroke-linejoin="round"/>
<path d="M944.5 316H1020" stroke="#ABD765" stroke-width="3" stroke-linecap="round" stroke-linejoin="round"/>
<path d="M944.5 309H1004.5" stroke="#ABD765" stroke-width="3" stroke-linecap="round" stroke-linejoin="round"/>
<path d="M943 301V291C943 290.448 943.448 290 944 290H989C989.552 290 990 290.448 990 291V301C990 301.552 989.552 302 989 302H944C943.448 302 943 301.552 943 301Z" fill="#ABD765"/>
</svg>
