<svg width="335" height="334" viewBox="0 0 335 334" fill="none" xmlns="http://www.w3.org/2000/svg">
<path d="M59.7268 148.15H7C4.23858 148.15 2 150.389 2 153.15V184.042C2 186.804 4.23858 189.042 7 189.042H19.8872M59.7268 148.15C36.9613 95.8577 29.3406 1.68164 166.237 1.68164C299.578 1.68164 294.428 102.797 275.186 148.15M59.7268 148.15H275.186M275.186 148.15H327.913C330.674 148.15 332.913 150.389 332.913 153.15V184.042C332.913 186.804 330.674 189.042 327.913 189.042H313.4M19.8872 189.042H71.9226H166.237H261.364H313.4M19.8872 189.042L38.8584 241.087L63.7921 309.488L70.7242 328.506C71.4438 330.48 73.3208 331.793 75.4219 331.793H122.332H166.237H213.801H257.865C259.966 331.793 261.843 330.48 262.563 328.506L281.216 277.332L306.353 208.373L313.4 189.042M264.417 148.15C283.66 102.797 287.991 11.443 166.237 11.443C44.4832 11.443 49.1571 95.8577 71.9226 148.15" stroke="#ABD765" stroke-width="3"/>
</svg>
