<svg width="274" height="466" viewBox="0 0 274 466" fill="none" xmlns="http://www.w3.org/2000/svg">
<path fill-rule="evenodd" clip-rule="evenodd" d="M138.206 3.27206C34.344 127.055 -106.261 367.665 135.168 375.387C134.098 377.589 133.138 380.004 132.278 382.588C133.298 379.952 134.272 377.532 135.168 375.387C376.633 383.11 244.958 133.717 145.761 3.45604C143.837 0.929804 140.245 0.842248 138.206 3.27206Z" fill="#ABD765"/>
<path d="M135.168 375.387C-106.261 367.665 34.344 127.055 138.206 3.27206M135.168 375.387C376.633 383.11 244.958 133.717 145.761 3.45604M135.168 375.387C134.272 377.532 133.298 379.952 132.278 382.588M135.168 375.387C134.098 377.589 133.138 380.004 132.278 382.588M138.206 3.27206C140.245 0.842248 143.837 0.929804 145.761 3.45604M138.206 3.27206V3.27206C140.2 0.894947 143.881 0.987325 145.761 3.45604V3.45604M132.278 382.588C124.993 404.479 124.89 438.52 126.093 458.109M132.278 382.588C123.941 404.122 112.463 440.157 114.797 459.789M126.093 458.109C126.277 461.11 123.974 463.674 121.038 463.674M126.093 458.109C126.096 458.152 126.098 458.195 126.101 458.238C126.282 461.164 123.969 463.674 121.038 463.674V463.674M121.038 463.674H119.366M119.366 463.674C117.089 463.674 115.073 462.103 114.797 459.789M119.366 463.674V463.674C117.092 463.674 115.081 462.13 114.807 459.873C114.804 459.845 114.801 459.817 114.797 459.789" stroke="#ABD765" stroke-width="3"/>
</svg>
