<svg width="278" height="278" viewBox="0 0 278 278" fill="none" xmlns="http://www.w3.org/2000/svg">
<mask id="mask0_295_296" style="mask-type:alpha" maskUnits="userSpaceOnUse" x="29" y="29" width="220" height="220">
<circle cx="139.002" cy="139.002" r="109.753" transform="rotate(18.5798 139.002 139.002)" fill="#1E1E1E"/>
</mask>
<g mask="url(#mask0_295_296)">
<path d="M62.9752 284.939L77.9682 237.089C88.3888 241.555 98.8095 243.788 109.23 243.788C133.687 243.788 150.062 231.241 158.356 206.146H157.718C155.166 208.273 150.7 210.187 144.32 211.888C137.94 213.377 131.986 214.121 126.456 214.121C103.914 214.121 85.8368 206.359 72.2262 190.834C58.6155 175.097 51.8102 156.807 51.8102 135.966C51.8102 115.337 58.8282 97.367 72.8642 82.055C87.1128 66.743 106.04 59.087 129.646 59.087C154.741 59.087 176.433 68.5507 194.722 87.478C213.012 106.405 222.156 133.308 222.156 168.185C222.156 183.922 219.711 199.234 214.819 214.121C210.141 229.008 203.335 242.512 194.403 254.634C185.684 266.756 174.2 276.539 159.951 283.982C145.915 291.213 130.391 294.828 113.377 294.828C93.5992 294.828 76.7985 291.532 62.9752 284.939ZM141.13 169.142C156.868 169.142 164.736 164.57 164.736 155.425C164.736 142.665 161.015 131.925 153.571 123.206C146.128 114.487 138.153 110.127 129.646 110.127C122.841 110.127 117.312 112.679 113.058 117.783C108.805 122.674 106.678 128.629 106.678 135.647C106.678 144.792 109.549 152.66 115.291 159.253C121.033 165.846 129.646 169.142 141.13 169.142Z" fill="#ABD765"/>
</g>
</svg>
