<svg width="1075" height="629" viewBox="0 0 1075 629" fill="none" xmlns="http://www.w3.org/2000/svg">
<path d="M1053.08 543.253C1055.41 543.133 1056.86 540.644 1055.69 538.618C1044.34 518.927 1034.18 527.971 1028.63 538.633C1027.18 541.404 1029.44 544.474 1032.56 544.313L1053.08 543.253Z" fill="#ABD765"/>
<path d="M1032.56 544.313V544.313C1029.44 544.474 1027.18 541.404 1028.63 538.633C1034.18 527.971 1044.34 518.927 1055.69 538.618C1056.86 540.644 1055.41 543.133 1053.08 543.253V543.253M1032.56 544.313V564.641C1032.56 566.565 1033.66 568.342 1035.46 569.014C1041.43 571.242 1050.13 572.78 1052.78 566.888C1053 566.402 1053.08 565.864 1053.08 565.33V543.253M1032.56 544.313L1053.08 543.253" stroke="#ABD765" stroke-width="3"/>
<path d="M960.176 400.276C955.666 387.101 970.358 393.104 970.559 400.276C970.559 403.409 970.693 409.36 971.106 416.655H979.602C979.999 401.298 982.722 395.778 985.777 393.257C1002.17 379.729 994.622 402.899 992.142 418.995H1022.98C1026.94 403.426 1030.1 385.627 1033.62 391.433C1038.45 399.425 1038.86 408.724 1036.62 418.995C1085.73 416.187 1074.7 378.048 1063.04 359.329C999.825 247.016 881.59 307.852 867.542 360.499C856.304 402.616 885.037 410.806 900.808 409.636C897.624 395.653 903.828 386.01 906.22 396.767C907.172 401.046 906.851 406.11 908.207 409.636L926.703 413.401C925.65 408.662 926.879 403.373 927.176 399.213C928.084 386.512 932.429 391.737 935.183 396.332C935.355 396.62 935.496 396.926 935.596 397.247C937.194 402.333 937.137 408.293 939.466 414.315H950.71L962.674 413.401C962.407 409.633 962.12 405.957 960.176 400.276Z" fill="#ABD765"/>
<path d="M900.808 409.636C897.624 395.653 903.828 386.01 906.22 396.767C907.172 401.046 906.851 406.11 908.207 409.636M900.808 409.636C903.859 423.029 911.184 441.476 926.074 452.923C930.556 456.368 935.44 459.79 935.44 481.001L936.546 564.982C936.582 567.683 938.757 569.868 941.458 569.915L998.184 570.91C1001 570.959 1003.31 568.667 1003.27 565.847L1002.17 478.662C1002.56 473.202 1005.21 460.879 1012.7 455.263C1019.91 449.859 1026.98 441.854 1029.93 438.131C1030.15 437.853 1030.34 437.554 1030.49 437.234C1032.58 432.804 1035.06 426.169 1036.62 418.995M900.808 409.636C885.037 410.806 856.304 402.616 867.542 360.499C881.59 307.852 999.825 247.016 1063.04 359.329C1074.7 378.048 1085.73 416.187 1036.62 418.995M1036.62 418.995C1038.86 408.724 1038.45 399.425 1033.62 391.433C1030.1 385.627 1026.94 403.426 1022.98 418.995M1022.98 418.995C1016.75 431.335 1008.85 442.635 1002.17 444.734C996.203 446.607 990.407 443.564 991.631 424.845C991.766 422.772 992.008 420.83 992.142 418.995M1022.98 418.995H992.142M992.142 418.995C994.622 402.899 1002.17 379.729 985.777 393.257C982.722 395.778 979.999 401.298 979.602 416.655M979.602 416.655C979.417 423.775 979.539 432.468 979.892 442.66C979.913 443.257 979.833 443.856 979.62 444.415C977.936 448.816 974.66 452.664 972.9 437.714C972.03 430.324 971.463 422.984 971.106 416.655M979.602 416.655H971.106M971.106 416.655C970.693 409.36 970.559 403.409 970.559 400.276C970.358 393.104 955.666 387.101 960.176 400.276C962.12 405.957 962.407 409.633 962.674 413.401M962.674 413.401C963.367 423.173 964.573 429.535 961.194 444.734C958.293 457.781 946.672 436.601 939.466 414.316M962.674 413.401L950.71 414.316H939.466M939.466 414.316C937.137 408.293 937.194 402.333 935.596 397.247C935.496 396.926 935.355 396.62 935.183 396.332C932.429 391.737 928.084 386.512 927.176 399.213C926.879 403.373 925.65 408.662 926.703 413.401M926.703 413.401C931.571 422.88 941.403 435.374 936.61 437.714C934.659 438.494 929.352 439.118 923.733 435.374C918.137 431.646 913.526 423.461 908.207 409.636M926.703 413.401L908.207 409.636" stroke="#ABD765" stroke-width="3"/>
<path d="M355.575 267.596C372.157 262.173 405.455 240.89 405.993 199.138C406.455 163.217 385.39 149.136 370.364 145.328C368.126 144.761 366.021 144.421 364.142 144.272C363.81 144.245 363.484 144.192 363.16 144.111C356.248 142.369 343.498 141.566 331.375 146.638C325.355 149.157 319.489 153.125 314.57 159.148C295.747 182.193 299.781 220.827 307.175 234.383C313.466 245.915 324.134 261.862 344.148 266.367C347.66 267.157 351.46 267.596 355.575 267.596Z" fill="#ABD765"/>
<path d="M363.16 144.111C363.484 144.192 363.81 144.245 364.142 144.272C366.021 144.421 368.126 144.761 370.364 145.328C388.902 126.049 414.83 81.7626 370.8 58.385C370.519 58.2359 370.212 58.1088 369.906 58.022C369.404 57.8794 368.884 57.7438 368.348 57.6164C362.939 56.3326 355.829 55.8873 348.637 57.6164C335.886 60.6818 322.873 70.5809 318.603 94.7569C315.914 104.492 314.704 128.496 331.375 146.638C343.498 141.566 356.248 142.369 363.16 144.111Z" fill="#ABD765"/>
<path d="M368.348 57.6164C379.776 45.144 396.178 17.2167 370.364 5.28749C338.098 -9.62407 335.409 30.366 338.77 41.8886C341.459 51.1067 346.468 56.2147 348.637 57.6164C355.829 55.8873 362.939 56.3326 368.348 57.6164Z" fill="#ABD765"/>
<path d="M355.575 267.596V409C355.575 411.761 353.337 414 350.575 414H345.253C342.438 414 340.178 411.677 340.255 408.863L344.148 266.367M355.575 267.596C372.157 262.173 405.455 240.89 405.993 199.138C406.455 163.217 385.39 149.136 370.364 145.328M355.575 267.596C351.46 267.596 347.66 267.157 344.148 266.367M370.364 145.328C368.126 144.761 366.021 144.421 364.142 144.272C363.81 144.245 363.484 144.192 363.16 144.111C356.248 142.369 343.498 141.566 331.375 146.638M370.364 145.328C388.902 126.049 414.83 81.7626 370.8 58.385C370.519 58.2359 370.211 58.1088 369.906 58.022C369.404 57.8794 368.884 57.7438 368.348 57.6164M331.375 146.638C325.355 149.157 319.489 153.125 314.57 159.148C295.747 182.193 299.781 220.827 307.175 234.383C313.466 245.915 324.134 261.862 344.148 266.367M331.375 146.638C314.704 128.496 315.914 104.492 318.603 94.7569C322.873 70.5809 335.886 60.6818 348.637 57.6164M368.348 57.6164C379.776 45.144 396.178 17.2167 370.364 5.28749C338.098 -9.62408 335.409 30.366 338.77 41.8886C341.459 51.1067 346.468 56.2147 348.637 57.6164M368.348 57.6164C362.939 56.3326 355.829 55.8873 348.637 57.6164" stroke="#ABD765" stroke-width="3"/>
<path d="M492.575 380.596C509.157 375.173 542.455 353.89 542.993 312.138C543.455 276.217 522.39 262.136 507.364 258.328C505.126 257.761 503.021 257.421 501.142 257.272C500.81 257.245 500.484 257.192 500.16 257.111C493.248 255.369 480.498 254.566 468.375 259.638C462.355 262.157 456.489 266.125 451.57 272.148C432.747 295.193 436.781 333.827 444.175 347.383C450.466 358.915 461.134 374.862 481.148 379.367C484.66 380.157 488.46 380.596 492.575 380.596Z" fill="#ABD765"/>
<path d="M500.16 257.111C500.484 257.192 500.81 257.245 501.142 257.272C503.021 257.421 505.126 257.761 507.364 258.328C525.902 239.049 551.83 194.763 507.8 171.385C507.519 171.236 507.212 171.109 506.906 171.022C506.404 170.879 505.884 170.744 505.348 170.616C499.939 169.333 492.829 168.887 485.637 170.616C472.886 173.682 459.873 183.581 455.603 207.757C452.914 217.492 451.704 241.496 468.375 259.638C480.498 254.566 493.248 255.369 500.16 257.111Z" fill="#ABD765"/>
<path d="M505.348 170.616C516.776 158.144 533.178 130.217 507.364 118.287C475.098 103.376 472.409 143.366 475.77 154.889C478.459 164.107 483.468 169.215 485.637 170.616C492.829 168.887 499.939 169.333 505.348 170.616Z" fill="#ABD765"/>
<path d="M492.575 380.596V522C492.575 524.761 490.337 527 487.575 527H482.253C479.438 527 477.178 524.677 477.255 521.863L481.148 379.367M492.575 380.596C509.157 375.173 542.455 353.89 542.993 312.138C543.455 276.217 522.39 262.136 507.364 258.328M492.575 380.596C488.46 380.596 484.66 380.157 481.148 379.367M507.364 258.328C505.126 257.761 503.021 257.421 501.142 257.272C500.81 257.245 500.484 257.192 500.16 257.111C493.248 255.369 480.498 254.566 468.375 259.638M507.364 258.328C525.902 239.049 551.83 194.763 507.8 171.385C507.519 171.236 507.211 171.109 506.906 171.022C506.404 170.879 505.884 170.744 505.348 170.616M468.375 259.638C462.355 262.157 456.489 266.125 451.57 272.148C432.747 295.193 436.781 333.827 444.175 347.383C450.466 358.915 461.134 374.862 481.148 379.367M468.375 259.638C451.704 241.496 452.914 217.492 455.603 207.757C459.873 183.581 472.886 173.682 485.637 170.616M505.348 170.616C516.776 158.144 533.178 130.217 507.364 118.287C475.098 103.376 472.409 143.366 475.77 154.889C478.459 164.107 483.468 169.215 485.637 170.616M505.348 170.616C499.939 169.333 492.829 168.887 485.637 170.616" stroke="#ABD765" stroke-width="3"/>
<path d="M209.077 364.253C211.413 364.133 212.858 361.644 211.689 359.618C200.337 339.927 190.184 348.971 184.628 359.633C183.185 362.404 185.444 365.474 188.564 365.313L209.077 364.253Z" fill="#ABD765"/>
<path d="M188.564 365.313V365.313C185.444 365.474 183.185 362.404 184.628 359.633C190.184 348.971 200.337 339.927 211.689 359.618C212.858 361.644 211.413 364.133 209.077 364.253V364.253M188.564 365.313V385.641C188.564 387.565 189.658 389.342 191.46 390.014C197.429 392.242 206.129 393.78 208.785 387.888C209.004 387.402 209.077 386.864 209.077 386.33V364.253M188.564 365.313L209.077 364.253" stroke="#ABD765" stroke-width="3"/>
<path d="M420.548 488.296C416.969 488.112 414.764 484.287 416.536 481.173C436.966 445.251 455.14 464.471 464.134 483.74C465.645 486.978 463.058 490.484 459.489 490.3L455.923 490.117L421.308 488.335L420.548 488.296Z" fill="#ABD765"/>
<path d="M455.923 490.117L459.489 490.3C463.058 490.484 465.645 486.978 464.134 483.74C455.14 464.471 436.966 445.251 416.536 481.173C414.764 484.287 416.969 488.112 420.548 488.296L421.308 488.335M455.923 490.117V526.447C455.923 528.373 454.825 530.143 453.043 530.875C442.876 535.055 426.085 538.788 421.588 527.587C421.389 527.09 421.308 526.547 421.308 526.011V488.335M455.923 490.117L421.308 488.335" stroke="#ABD765" stroke-width="3"/>
<path fill-rule="evenodd" clip-rule="evenodd" d="M222.589 382.217L225.75 382.202L237.25 382.217H240.678C241.811 382.217 242.602 381.099 242.177 380.058C235.034 362.566 225.908 371.474 221.178 379.937C220.595 380.98 221.385 382.217 222.589 382.217Z" fill="#ABD765"/>
<path d="M225.75 382.202L222.589 382.217M225.75 382.202L240.678 382.217M225.75 382.202L237.25 382.217M225.75 382.202V382.217M237.25 382.217H240.678M237.25 382.217V392.325M237.25 382.217H225.75M242.177 380.058C235.034 362.566 225.908 371.474 221.178 379.937M242.177 380.058C242.602 381.099 241.811 382.217 240.678 382.217M242.177 380.058V380.058C242.603 381.101 241.804 382.217 240.678 382.217V382.217M221.178 379.937C220.595 380.98 221.385 382.217 222.589 382.217M221.178 379.937V379.937C220.596 380.977 221.397 382.217 222.589 382.217V382.217M222.589 382.217H225.75M240.678 382.217H225.75M225.75 392.59C225.75 392.724 225.764 392.857 225.807 392.984M225.75 392.59V392.59C225.75 392.724 225.764 392.858 225.807 392.984V392.984M225.75 392.59V382.217M237.25 392.325C237.25 392.63 237.166 392.932 236.987 393.181M237.25 392.325V392.325C237.25 392.63 237.166 392.933 236.987 393.181V393.181M236.987 393.181C233.657 397.798 226.838 396.024 225.807 392.984" stroke="#ABD765" stroke-width="3"/>
<path fill-rule="evenodd" clip-rule="evenodd" d="M135.052 605.265L140 605.241L158 605.265H163.366C165.14 605.265 166.377 603.502 165.712 601.861C154.532 574.277 140.248 588.324 132.844 601.67C131.931 603.315 133.167 605.265 135.052 605.265Z" fill="#ABD765"/>
<path d="M140 605.241L135.052 605.265M140 605.241L163.366 605.265M140 605.241L158 605.265M140 605.241V605.265M158 605.265H163.366M158 605.265V621.205M158 605.265H140M165.712 601.861C154.532 574.277 140.248 588.324 132.844 601.67M165.712 601.861C166.377 603.502 165.14 605.265 163.366 605.265M165.712 601.861V601.861C166.378 603.505 165.139 605.265 163.366 605.265V605.265M132.844 601.67C131.931 603.315 133.167 605.265 135.052 605.265M132.844 601.67V601.67C131.932 603.313 133.173 605.265 135.052 605.265V605.265M135.052 605.265H140M163.366 605.265H140M140 621.623C140 621.834 140.022 622.045 140.089 622.244M140 621.623V621.623C140 621.834 140.022 622.045 140.089 622.244V622.244M140 621.623V605.265M158 621.205C158 621.686 157.869 622.163 157.589 622.554M158 621.205V621.205C158 621.685 157.869 622.163 157.589 622.554V622.554M157.589 622.554C152.375 629.836 141.702 627.037 140.089 622.244" stroke="#ABD765" stroke-width="3"/>
<path d="M827.468 143.589L833.662 139.323C834.2 138.952 834.939 139.289 835.005 139.94C844.138 133.372 860.907 116.468 861.057 97.8053C861.08 94.944 863.03 92.2874 865.824 91.6695C885.162 87.3927 921.613 70.3112 900.75 40.0095C883.019 14.2572 859.308 25.9889 847.477 40.156C844.457 43.7732 836.439 43.8679 833.93 39.8787C794.765 -22.3936 710.231 7.30956 718.118 79.2357C718.406 81.8679 716.75 84.3874 714.225 85.1853C695.349 91.1505 661.718 111.105 678.6 142.811C695.496 174.545 730.047 159.754 741.795 148.554C743.396 147.027 745.913 146.831 747.759 148.051C748.914 148.815 750.239 149.614 751.723 150.418C755.191 152.297 757.79 154.201 762.83 155.732C765.522 156.549 770.149 157.26 773.222 157.803C779.277 158.874 786.026 159.296 793.287 158.603L804.753 155.732C804.766 155.763 804.779 155.795 804.792 155.828C805.428 155.775 814.475 148.192 814.475 151.398L827.468 143.589Z" fill="#ABD765"/>
<path d="M827.468 143.589L833.662 139.323C834.2 138.952 834.939 139.289 835.005 139.94V139.94M827.468 143.589C826.512 154.596 826.296 171.941 824.003 173.089C821.136 174.525 814.475 155.705 814.475 151.398M827.468 143.589L814.475 151.398M814.475 151.398C814.475 148.192 805.428 155.775 804.792 155.828M804.753 155.732L793.287 158.603M804.753 155.732C804.766 155.763 804.779 155.795 804.792 155.828M804.753 155.732C804.73 155.802 804.745 155.831 804.792 155.828M793.287 158.603C793.287 167.896 795.164 188.47 796.64 202.829C797.039 206.719 801.531 208.595 804.473 206.017C812.699 198.811 821.727 189.409 819.085 185.88C815.659 181.304 808.156 164.003 804.792 155.828M793.287 158.603C786.026 159.296 779.277 158.874 773.222 157.803M793.287 158.603C790.249 158.893 787.301 158.987 784.456 158.921C781.503 158.853 778.955 161.148 778.955 164.101V178.737C778.955 182.208 775.511 184.585 772.439 182.968C768.478 180.882 764.37 178.084 762.581 175.038C761.857 173.805 762.249 172.307 763.112 171.167L773.222 157.803M835.005 139.94C839.705 185.991 816.887 211.356 802.238 220.057C800.365 221.169 799.208 223.218 799.493 225.378C802.616 249.029 809.346 297.148 814.785 326.57C820.297 356.384 822.718 442.379 823.321 485.966C823.36 488.75 821.111 491 818.327 491H812.493C809.782 491 807.565 488.861 807.496 486.15C806.508 447.433 804.753 376.913 804.753 372.51C804.753 368.024 789.265 260.968 780.975 204.248C780.631 201.896 778.663 200.196 776.347 199.66C755.997 194.947 744.905 164.24 741.795 148.554M835.005 139.94C844.138 133.372 860.907 116.468 861.057 97.8053C861.08 94.944 863.03 92.2874 865.824 91.6695C885.162 87.3927 921.613 70.3112 900.75 40.0095C883.019 14.2572 859.308 25.9889 847.477 40.156C844.457 43.7732 836.439 43.8679 833.93 39.8787C794.765 -22.3936 710.231 7.30956 718.118 79.2357C718.406 81.8679 716.75 84.3874 714.225 85.1853C695.349 91.1505 661.718 111.105 678.6 142.811C695.496 174.545 730.047 159.754 741.795 148.554M773.222 157.803C770.149 157.26 765.522 156.549 762.83 155.732M762.83 155.732L761.628 161.794C760.452 167.722 751.723 166.865 751.723 160.821V150.418M762.83 155.732C757.79 154.201 755.191 152.297 751.723 150.418M751.723 150.418C750.239 149.614 748.914 148.815 747.759 148.051C745.913 146.831 743.396 147.027 741.795 148.554V148.554" stroke="#ABD765" stroke-width="3"/>
<path d="M95.8148 583.136C131.068 582.472 192.396 563.198 155.679 491.421C109.783 401.7 0.0313629 449.551 2.02685 513.353C4.02234 577.155 37.9456 583.417 69.8735 583.136V558.229C69.8735 555.468 72.112 553.229 74.8735 553.229L87.4471 553.229C89.9529 553.229 92.0718 555.084 92.4032 557.568L95.8148 583.136Z" fill="#ABD765"/>
<path d="M95.8148 583.136L101.027 621.324C101.436 624.326 99.1027 627 96.0725 627H74.8735C72.112 627 69.8735 624.761 69.8735 622V583.136M95.8148 583.136C131.068 582.472 192.396 563.198 155.679 491.421C109.783 401.7 0.0313629 449.551 2.02685 513.353C4.02234 577.155 37.9456 583.417 69.8735 583.136M95.8148 583.136L92.4032 557.568C92.0718 555.084 89.9529 553.229 87.4471 553.229L74.8735 553.229C72.112 553.229 69.8735 555.468 69.8735 558.229V583.136" stroke="#ABD765" stroke-width="3"/>
<path d="M27.4651 187.475C23.1169 198.745 3.19098 228.996 55.5331 228.431C56.0253 228.425 56.5396 228.343 57.0098 228.197C63.9826 226.035 77.4846 222.954 90.3844 222.868C94.9329 222.837 99.4065 223.179 103.493 224.064C108.421 225.132 113.147 225.464 117.475 225.335C126.533 225.064 133.844 222.775 137.606 220.999C138.17 220.733 138.765 220.542 139.385 220.478C140.707 220.34 142.153 220.215 143.691 220.109C148.41 219.786 153.984 219.654 159.421 219.967C165.307 220.306 171.031 221.166 175.33 222.868C178.63 224.174 181.091 225.977 182.142 228.42C187.385 240.617 219.719 233.647 226.71 217.095C233.701 200.542 260.791 192.702 262.539 187.475C264.287 182.247 283.512 156.112 245.935 136.075C208.358 116.037 271.278 103.841 226.71 84.6748C182.142 65.5087 188.259 91.6443 172.529 88.1595C156.799 84.6748 150.682 64.6375 127.087 69.8646C108.212 74.0463 83.0244 61.4195 75.5294 80.319C66.8896 102.105 46.6926 98.9436 37.1776 102.105C-21.4419 121.583 37.0777 150.885 34.456 163.953C32.3587 174.407 28.9216 183.99 27.4651 187.475Z" fill="#ABD765"/>
<path d="M103.493 224.064C99.4065 223.179 94.9329 222.837 90.3844 222.868M103.493 224.064C108.421 225.132 113.147 225.464 117.475 225.335M103.493 224.064L109.025 234.342C111.685 239.284 119.215 236.768 118.371 231.22L117.475 225.335M90.3844 222.868C77.4846 222.954 63.9826 226.035 57.0098 228.197C56.5396 228.343 56.0253 228.425 55.5331 228.431C3.19098 228.996 23.1169 198.745 27.4651 187.475C28.9216 183.99 32.3587 174.407 34.456 163.953C37.0777 150.885 -21.4419 121.583 37.1776 102.105C46.6926 98.9435 66.8896 102.105 75.5294 80.319C83.0244 61.4195 108.212 74.0463 127.087 69.8646C150.682 64.6375 156.799 84.6748 172.529 88.1595C188.259 91.6443 182.142 65.5087 226.71 84.6748C271.278 103.841 208.358 116.037 245.935 136.075C283.512 156.112 264.287 182.247 262.539 187.475C260.791 192.702 233.701 200.542 226.71 217.095C219.719 233.647 187.385 240.617 182.142 228.42C181.091 225.977 178.63 224.174 175.33 222.868M90.3844 222.868C96.2103 237.205 111.75 267.302 117.475 278.949C124.739 293.729 124.466 386.976 129.709 390.461C133.119 392.727 143.691 392.076 151.283 391.129C153.9 390.803 155.72 388.438 155.466 385.813C152.53 355.447 148.239 298.131 151.556 278.949C155.052 258.737 168.862 233.14 175.33 222.868M175.33 222.868C171.031 221.166 165.307 220.306 159.421 219.967M159.421 219.967L154.019 230.631C151.763 235.085 145.09 233.845 144.584 228.878L143.691 220.109M159.421 219.967C153.984 219.654 148.41 219.786 143.691 220.109M143.691 220.109C142.153 220.215 140.707 220.34 139.385 220.478C138.765 220.542 138.17 220.733 137.606 220.999C133.844 222.775 126.533 225.064 117.475 225.335" stroke="#ABD765" stroke-width="3"/>
<path d="M645.198 356.18C644.119 355.958 643.056 356.353 642.185 357.027C624.391 370.8 590.728 398.968 588.472 411.161C588.108 413.13 590.111 414.247 592.108 414.113C604.213 413.303 623.925 413.759 626.339 420.988C629.551 430.607 580.82 436.078 571.874 442.432C571.377 442.786 570.879 443.142 570.33 443.408C556.001 450.356 547.477 469.064 577.788 471.657C616.408 474.962 625.235 460.642 623.029 471.657C621.263 480.469 571.167 491.778 552.408 508.007C541.374 517.553 529.678 536.866 571.167 537.747C612.656 538.629 637.741 534.443 645.098 532.24V502.226C645.098 500.363 646.115 498.593 647.873 497.977C657.324 494.662 665.466 500.908 663.856 532.24L736.684 537.747C750.494 537.747 767.44 521.36 741.421 499.466C741.212 499.29 740.985 499.129 740.749 498.991C718.133 485.805 677.587 469.137 663.856 456.236C645.098 438.612 694.275 468.353 710.827 468.353C727.379 468.353 758.399 463.416 736.684 449.627C726.275 443.018 700.638 432.003 689.235 429.8C677.833 427.597 654.367 421.429 651.718 414.379C648.408 405.567 705.787 422.09 705.787 414.379C705.787 408.211 688.421 395.478 679.93 387.943C670.512 379.586 655.734 358.35 645.198 356.18Z" fill="#ABD765"/>
<path d="M645.098 532.24C637.741 534.443 612.656 538.629 571.167 537.747C529.678 536.866 541.374 517.553 552.408 508.007C571.167 491.778 621.263 480.469 623.029 471.657C625.235 460.642 616.408 474.962 577.788 471.657C547.477 469.064 556.001 450.356 570.33 443.408C570.879 443.142 571.377 442.786 571.874 442.432C580.82 436.078 629.551 430.607 626.339 420.988C623.925 413.759 604.213 413.303 592.108 414.113C590.111 414.247 588.108 413.13 588.472 411.161C590.728 398.968 624.391 370.8 642.185 357.027C643.056 356.353 644.119 355.958 645.198 356.18C655.734 358.35 670.512 379.586 679.93 387.943C688.421 395.478 705.787 408.211 705.787 414.379C705.787 422.09 648.408 405.567 651.718 414.379C654.367 421.429 677.833 427.597 689.235 429.8C700.638 432.003 726.275 443.018 736.684 449.627C758.399 463.416 727.379 468.353 710.827 468.353C694.275 468.353 645.098 438.612 663.856 456.236C677.587 469.137 718.133 485.805 740.749 498.991C740.985 499.129 741.212 499.29 741.421 499.466C767.44 521.36 750.494 537.747 736.684 537.747L663.856 532.24M645.098 532.24V502.226C645.098 500.363 646.115 498.593 647.873 497.977C657.324 494.662 665.466 500.908 663.856 532.24M645.098 532.24V565.792C645.098 568.554 647.336 570.792 650.098 570.792H656.644C658.937 570.792 661.117 569.742 661.398 567.465C661.984 562.721 662.818 552.44 663.856 532.24" stroke="#ABD765" stroke-width="3"/>
</svg>
