<svg width="1101" height="89" viewBox="0 0 1101 89" fill="none" xmlns="http://www.w3.org/2000/svg">
<path d="M145.234 2.06306V87H1066.09V2.46847L145.234 2.06306Z" fill="#ABD765"/>
<path d="M145.234 2.06306L7.00219 2.0022C4.23991 2.00099 2 4.23992 2 7.0022V82C2 84.7614 4.23858 87 7 87H145.234M145.234 2.06306V87M145.234 2.06306L1066.09 2.46847M145.234 87H1066.09M1066.09 2.46847L1094 2.48075C1096.76 2.48197 1099 4.72018 1099 7.48075V82C1099 84.7614 1096.76 87 1094 87H1066.09M1066.09 2.46847V87" stroke="#ABD765" stroke-width="2.85311"/>
<path d="M61.031 11L49.5924 17.084C46.2062 18.8851 46.0251 23.671 49.2655 25.7228L54.2566 28.8831C57.3821 30.8622 57.3506 35.4326 54.198 37.3683L50.0991 39.8852C46.8774 41.8634 46.9319 46.5635 50.1986 48.4665L55.1713 51.3633C58.3451 53.2121 58.5088 57.7375 55.4769 59.8109L49.9504 63.5902C46.8125 65.7361 47.1222 70.46 50.5134 72.1778L62.007 78" stroke="#ABD765" stroke-width="2.85311"/>
<path d="M71.1961 11L59.7575 17.084C56.3712 18.8851 56.1901 23.671 59.4306 25.7228L64.4216 28.8831C67.5472 30.8622 67.5157 35.4326 64.3631 37.3683L60.2641 39.8852C57.0425 41.8634 57.0969 46.5635 60.3636 48.4665L65.3364 51.3633C68.5102 53.2121 68.6739 57.7375 65.642 59.8109L60.1154 63.5902C56.9776 65.7361 57.2873 70.46 60.6784 72.1778L72.172 78" stroke="#ABD765" stroke-width="2.85311"/>
<path d="M81.3616 11L69.923 17.084C66.5367 18.8851 66.3556 23.671 69.5961 25.7228L74.5871 28.8831C77.7127 30.8622 77.6812 35.4326 74.5286 37.3683L70.4296 39.8852C67.208 41.8634 67.2625 46.5635 70.5291 48.4665L75.5019 51.3633C78.6757 53.2121 78.8394 57.7375 75.8075 59.8109L70.281 63.5902C67.1431 65.7361 67.4528 70.46 70.8439 72.1778L82.3376 78" stroke="#ABD765" stroke-width="2.85311"/>
<path d="M91.5276 11L80.089 17.084C76.7027 18.8851 76.5216 23.671 79.7621 25.7228L84.7531 28.8831C87.8787 30.8622 87.8472 35.4326 84.6946 37.3683L80.5957 39.8852C77.374 41.8634 77.4285 46.5635 80.6952 48.4665L85.6679 51.3633C88.8417 53.2121 89.0054 57.7375 85.9735 59.8109L80.447 63.5902C77.3091 65.7361 77.6188 70.46 81.01 72.1778L92.5036 78" stroke="#ABD765" stroke-width="2.85311"/>
<path d="M101.692 11L90.2535 17.084C86.8673 18.8851 86.6862 23.671 89.9267 25.7228L94.9177 28.8831C98.0433 30.8622 98.0117 35.4326 94.8592 37.3683L90.7602 39.8852C87.5386 41.8634 87.593 46.5635 90.8597 48.4665L95.8325 51.3633C99.0063 53.2121 99.17 57.7375 96.1381 59.8109L90.6115 63.5902C87.4737 65.7361 87.7834 70.46 91.1745 72.1778L102.668 78" stroke="#ABD765" stroke-width="2.85311"/>
<path d="M111.858 11L100.42 17.084C97.0333 18.8851 96.8522 23.671 100.093 25.7228L105.084 28.8831C108.209 30.8622 108.178 35.4326 105.025 37.3683L100.926 39.8852C97.7046 41.8634 97.7591 46.5635 101.026 48.4665L105.998 51.3633C109.172 53.2121 109.336 57.7375 106.304 59.8109L100.778 63.5902C97.6397 65.7361 97.9494 70.46 101.341 72.1778L112.834 78" stroke="#ABD765" stroke-width="2.85311"/>
<path d="M122.024 11L110.586 17.084C107.199 18.8851 107.018 23.671 110.259 25.7228L115.25 28.8831C118.375 30.8622 118.344 35.4326 115.191 37.3683L111.092 39.8852C107.871 41.8634 107.925 46.5635 111.192 48.4665L116.165 51.3633C119.338 53.2121 119.502 57.7375 116.47 59.8109L110.944 63.5902C107.806 65.7361 108.115 70.46 111.507 72.1778L123 78" stroke="#ABD765" stroke-width="2.85311"/>
</svg>
