<svg width="1099" height="87" viewBox="0 0 1099 87" fill="none" xmlns="http://www.w3.org/2000/svg">
<line y1="1.17383" x2="1099" y2="1.17383" stroke="#ABD765"/>
<line y1="20.1738" x2="1099" y2="20.1738" stroke="#ABD765"/>
<line y1="68.1738" x2="1099" y2="68.1738" stroke="#ABD765"/>
<line y1="86.1738" x2="1099" y2="86.1738" stroke="#ABD765"/>
<path d="M1073.35 3.32027C1073.16 3.12501 1072.84 3.12501 1072.65 3.32027L1069.46 6.50226C1069.27 6.69752 1069.27 7.0141 1069.46 7.20936C1069.66 7.40462 1069.98 7.40462 1070.17 7.20936L1073 4.38093L1075.83 7.20936C1076.02 7.40462 1076.34 7.40462 1076.54 7.20936C1076.73 7.0141 1076.73 6.69752 1076.54 6.50226L1073.35 3.32027ZM1072.65 18.0274C1072.84 18.2226 1073.16 18.2226 1073.35 18.0274L1076.54 14.8454C1076.73 14.6501 1076.73 14.3336 1076.54 14.1383C1076.34 13.943 1076.02 13.943 1075.83 14.1383L1073 16.9667L1070.17 14.1383C1069.98 13.943 1069.66 13.943 1069.46 14.1383C1069.27 14.3336 1069.27 14.6501 1069.46 14.8454L1072.65 18.0274ZM1072.5 3.67383V17.6738H1073.5V3.67383H1072.5Z" fill="#ABD765"/>
<path d="M1073.35 70.3203C1073.16 70.125 1072.84 70.125 1072.65 70.3203L1069.46 73.5023C1069.27 73.6975 1069.27 74.0141 1069.46 74.2094C1069.66 74.4046 1069.98 74.4046 1070.17 74.2094L1073 71.3809L1075.83 74.2094C1076.02 74.4046 1076.34 74.4046 1076.54 74.2094C1076.73 74.0141 1076.73 73.6975 1076.54 73.5023L1073.35 70.3203ZM1072.65 84.0274C1072.84 84.2226 1073.16 84.2226 1073.35 84.0274L1076.54 80.8454C1076.73 80.6501 1076.73 80.3336 1076.54 80.1383C1076.34 79.943 1076.02 79.943 1075.83 80.1383L1073 82.9667L1070.17 80.1383C1069.98 79.943 1069.66 79.943 1069.46 80.1383C1069.27 80.3336 1069.27 80.6501 1069.46 80.8454L1072.65 84.0274ZM1072.5 70.6738V83.6738H1073.5V70.6738H1072.5Z" fill="#ABD765"/>
</svg>
