<svg width="405" height="697" viewBox="0 0 405 697" fill="none" xmlns="http://www.w3.org/2000/svg">
<path d="M403 65.7857C403 64.0401 402.09 62.4209 400.598 61.5138L303.947 2.72812C303.164 2.25188 302.265 2 301.349 2H7C4.23858 2 2 4.23858 2 7V519.112H403V65.7857Z" fill="#ABD765"/>
<path d="M403 608.228V690C403 692.761 400.762 695 398 695H7C4.23858 695 2 692.761 2 690V608.228M403 608.228H2M403 608.228V519.112M2 608.228V519.112M2 519.112V7C2 4.23858 4.23858 2 7 2H301.349C302.265 2 303.164 2.25188 303.947 2.72812L400.598 61.5138C402.09 62.4209 403 64.0401 403 65.7857V519.112M2 519.112H403" stroke="#ABD765" stroke-width="4"/>
</svg>
