<svg width="1102" height="1204" viewBox="0 0 1102 1204" fill="none" xmlns="http://www.w3.org/2000/svg">
<rect x="505.795" y="70.0228" width="53.048" height="22.0102" rx="3.50317" stroke="#ABD765" stroke-width="3.00272"/>
<rect x="1.50624" y="2.22987" width="621.562" height="1044.54" rx="3.50317" stroke="#ABD765" stroke-width="3.00272"/>
<path d="M383.852 740.109C383.852 779.065 352.26 810.645 313.288 810.645C274.316 810.645 242.725 779.065 242.725 740.109C242.725 701.154 274.316 669.574 313.288 669.574C352.26 669.574 383.852 701.154 383.852 740.109Z" stroke="#ABD765" stroke-width="3.00272"/>
<path d="M505.963 740.111C505.963 847.032 419.252 933.71 312.287 933.71C205.323 933.71 118.612 847.032 118.612 740.111C118.612 633.189 205.323 546.511 312.287 546.511C419.252 546.511 505.963 633.189 505.963 740.111Z" stroke="#ABD765" stroke-width="3.00272"/>
<rect x="41.5424" y="46.2514" width="541.49" height="404.208" rx="3.50317" stroke="#ABD765" stroke-width="3.00272"/>
<rect x="61.5604" y="119.345" width="216.196" height="261.134" rx="3.50317" fill="#ABD765" stroke="#ABD765" stroke-width="3.00272"/>
<path d="M150.141 409.941C147.377 409.941 145.136 412.182 145.136 414.946V422.946C145.136 425.71 147.377 427.951 150.141 427.951H208.152V409.941H150.141Z" fill="#ABD765"/>
<path d="M208.152 409.941H474.434C477.198 409.941 479.439 412.182 479.439 414.946V422.946C479.439 425.71 477.198 427.951 474.434 427.951H208.152M208.152 409.941H150.141C147.377 409.941 145.136 412.182 145.136 414.946V422.946C145.136 425.71 147.377 427.951 150.141 427.951H208.152M208.152 409.941V427.951" stroke="#ABD765" stroke-width="3.00272"/>
<path d="M409.212 1046.1C409.212 1096 417.965 1174.99 574.247 1178.36M574.247 1178.36C572.644 1169.14 575.93 1150.71 601.897 1150.71C627.718 1150.71 676.678 1150.71 698.307 1150.71C698.558 1150.71 698.793 1150.72 699.04 1150.77C705.744 1151.97 717.992 1159 716.104 1178.36M574.247 1178.36C574.247 1193.82 585.651 1200.27 591.798 1201.7C592.119 1201.78 592.433 1201.81 592.763 1201.81C618.192 1201.81 670.359 1201.81 679.438 1201.81C690.858 1201.81 713.7 1203.01 716.104 1178.36M716.104 1178.36H905.446C956.943 1178.36 1058.6 1127.26 1070.14 999.82L1072.81 492.449M716.104 1178.36C772.005 1173.35 883.567 1138.2 882.605 1037.69C881.643 937.18 882.508 747.791 882.909 666.435" stroke="#ABD765" stroke-width="3.00272"/>
<path d="M176.249 195.146C175.212 194.775 174.122 195.185 173.252 195.862C164.612 202.592 149.734 215.098 146.646 221.807C145.809 223.627 147.609 224.845 149.611 224.759C155.868 224.489 164.564 224.966 165.71 228.398C167.33 233.247 143.379 236.055 137.926 239.238C137.399 239.546 136.901 239.897 136.36 240.179C129.199 243.915 125.23 253.255 140.614 254.57C160.577 256.277 165.14 248.881 163.999 254.57C163.086 259.122 137.192 264.964 127.495 273.347C121.792 278.278 115.746 288.254 137.192 288.709C158.637 289.164 171.604 287.002 175.406 285.864V271.83C175.406 269.964 176.417 268.069 178.264 267.811C182.508 267.217 185.853 271.277 185.103 285.864L222.747 288.709C229.858 288.709 238.578 280.309 225.351 269.065C225.143 268.889 224.915 268.728 224.679 268.591C212.956 261.795 192.166 253.237 185.103 246.605C175.406 237.501 200.826 252.864 209.382 252.864C217.937 252.864 233.972 250.313 222.747 243.191C217.367 239.777 204.115 234.087 198.221 232.949C192.327 231.811 180.197 228.625 178.829 224.984C177.117 220.432 206.777 228.967 206.777 224.984C206.777 221.798 197.8 215.22 193.411 211.328C188.774 207.217 181.624 197.07 176.249 195.146Z" fill="#2D491E"/>
<path d="M178.264 267.811C176.417 268.069 175.406 269.964 175.406 271.83V285.864V301.293C175.406 303.77 177.415 305.778 179.892 305.778V305.778C181.949 305.778 183.79 304.634 183.994 302.587C184.282 299.698 184.656 294.561 185.103 285.864C185.853 271.277 182.508 267.217 178.264 267.811Z" fill="#2D491E"/>
<path d="M175.406 285.864C171.604 287.002 158.637 289.164 137.192 288.709C115.746 288.254 121.792 278.278 127.495 273.347C137.192 264.964 163.086 259.122 163.999 254.57C165.14 248.881 160.577 256.277 140.614 254.57C125.23 253.255 129.199 243.915 136.36 240.179C136.901 239.897 137.399 239.546 137.926 239.238C143.379 236.055 167.33 233.247 165.71 228.398C164.564 224.966 155.868 224.489 149.611 224.759C147.609 224.845 145.809 223.627 146.646 221.807C149.734 215.098 164.612 202.592 173.252 195.862C174.122 195.185 175.212 194.775 176.249 195.146C181.624 197.07 188.774 207.217 193.411 211.328C197.8 215.22 206.777 221.798 206.777 224.984C206.777 228.967 177.117 220.432 178.829 224.984C180.197 228.625 192.327 231.811 198.221 232.949C204.115 234.087 217.367 239.777 222.747 243.191C233.972 250.313 217.937 252.864 209.382 252.864C200.826 252.864 175.406 237.501 185.103 246.605C192.166 253.237 212.956 261.795 224.679 268.591C224.915 268.728 225.143 268.889 225.351 269.065C238.578 280.309 229.858 288.709 222.747 288.709L185.103 285.864M175.406 285.864V271.83C175.406 269.964 176.417 268.069 178.264 267.811C182.508 267.217 185.853 271.277 185.103 285.864M175.406 285.864V301.293C175.406 303.77 177.415 305.778 179.892 305.778V305.778C181.949 305.778 183.79 304.634 183.994 302.587C184.282 299.698 184.656 294.561 185.103 285.864" stroke="#ABD765" stroke-width="3.00272"/>
<rect x="504.293" y="68.5215" width="45.0408" height="25.0129" rx="5.00453" fill="#ABD765"/>
<path d="M904.824 666.071H858.227C855.463 666.071 853.222 663.845 853.222 661.081V583.427C853.222 565.511 838.428 562.979 830.693 563.966C830.454 563.996 830.218 564.014 829.977 564.014H752.656C734.831 564.458 721.944 550.218 717.729 543.007C712.155 533.473 712.43 503.556 717.729 488.025C723.028 472.495 743.222 468.242 752.656 468.057H858.642C895.255 466.282 908.022 491.723 909.828 504.665V661.067C909.828 663.83 907.588 666.071 904.824 666.071Z" stroke="#ABD765" stroke-width="3.00272"/>
<path d="M782.219 467.969V563.418" stroke="#ABD765" stroke-width="3.00272"/>
<path d="M1095 490.983H1048.4C1045.64 490.983 1043.39 488.757 1043.39 485.994V408.339C1043.39 390.423 1028.6 387.891 1020.87 388.878C1020.63 388.908 1020.39 388.926 1020.15 388.926H942.829C925.003 389.37 912.117 375.13 907.901 367.92C902.328 358.385 902.602 328.468 907.901 312.937C913.201 297.407 933.394 293.154 942.829 292.969H1048.81C1085.43 291.194 1098.19 316.635 1100 329.577V485.979C1100 488.743 1097.76 490.983 1095 490.983Z" stroke="#ABD765" stroke-width="3.00272"/>
<path d="M972.392 292.881V388.33" stroke="#ABD765" stroke-width="3.00272"/>
</svg>
