<svg width="1101" height="432" viewBox="0 0 1101 432" fill="none" xmlns="http://www.w3.org/2000/svg">
<path d="M2 401.296V31.564C2 29.0386 3.90481 26.9524 6.35504 26.3408C19.0623 23.1691 24.4846 13.881 26.2497 6.80449C26.905 4.17704 29.1022 2 31.8102 2H825.763C827.962 2 829.886 3.45451 830.645 5.51912C843.339 40.0509 873.612 25.8586 879.143 6.57146C879.866 4.05107 881.996 2 884.618 2H1068.92C1071.73 2 1073.92 4.35313 1074.43 7.12176C1076.53 18.5184 1086.73 23.8556 1094.52 25.7676C1097.02 26.3829 1099 28.5153 1099 31.0961V401.389C1099 404.252 1096.58 406.466 1093.74 406.866C1082 408.523 1076.67 418.006 1074.81 425.429C1074.18 427.968 1072.03 430 1069.41 430H882.637C880.349 430 878.377 428.43 877.663 426.257C867.223 394.492 836.439 403.165 830.313 425.642C829.647 428.085 827.559 430 825.027 430H31.3372C28.5758 430 26.401 427.738 25.8946 425.023C23.7399 413.474 14.1507 408.411 6.70359 406.723C4.10357 406.134 2 403.962 2 401.296Z" stroke="#ABD765" stroke-width="3"/>
<path d="M958.5 93H1038.5" stroke="#ABD765" stroke-width="3" stroke-linecap="round" stroke-linejoin="round"/>
<path d="M958.5 202H998.5" stroke="#ABD765" stroke-width="3" stroke-linecap="round" stroke-linejoin="round"/>
<path d="M958.5 183H1003.5" stroke="#ABD765" stroke-width="3" stroke-linecap="round" stroke-linejoin="round"/>
<path d="M958.5 176H988.5" stroke="#ABD765" stroke-width="3" stroke-linecap="round" stroke-linejoin="round"/>
<path d="M958.5 172H988.5" stroke="#ABD765" stroke-width="3" stroke-linecap="round" stroke-linejoin="round"/>
<path d="M958.5 166H998.5" stroke="#ABD765" stroke-width="3" stroke-linecap="round" stroke-linejoin="round"/>
<path d="M958.5 161H1008.5" stroke="#ABD765" stroke-width="3" stroke-linecap="round" stroke-linejoin="round"/>
<path d="M958.5 153H1003.5" stroke="#ABD765" stroke-width="3" stroke-linecap="round" stroke-linejoin="round"/>
<path d="M958.5 135H1003.5" stroke="#ABD765" stroke-width="3" stroke-linecap="round" stroke-linejoin="round"/>
<path d="M958.5 126H988.5" stroke="#ABD765" stroke-width="3" stroke-linecap="round" stroke-linejoin="round"/>
<path d="M958.5 120.998H998.5" stroke="#ABD765" stroke-width="3" stroke-linecap="round" stroke-linejoin="round"/>
<path d="M958.5 112.998H1018.5" stroke="#ABD765" stroke-width="3" stroke-linecap="round" stroke-linejoin="round"/>
<path d="M958.5 104.998H1028.5" stroke="#ABD765" stroke-width="3" stroke-linecap="round" stroke-linejoin="round"/>
<path d="M958.5 99.998H1033.5" stroke="#ABD765" stroke-width="3" stroke-linecap="round" stroke-linejoin="round"/>
<path d="M958.5 244H1003.5" stroke="#ABD765" stroke-width="3" stroke-linecap="round" stroke-linejoin="round"/>
<path d="M958.5 260H1008.5" stroke="#ABD765" stroke-width="3" stroke-linecap="round" stroke-linejoin="round"/>
<path d="M958.5 226H1002.5" stroke="#ABD765" stroke-width="3" stroke-linecap="round" stroke-linejoin="round"/>
<path d="M958.5 222H1018.5" stroke="#ABD765" stroke-width="3" stroke-linecap="round" stroke-linejoin="round"/>
<path d="M958.5 216H1033.5" stroke="#ABD765" stroke-width="3" stroke-linecap="round" stroke-linejoin="round"/>
<path d="M958.5 209H1023.5" stroke="#ABD765" stroke-width="3" stroke-linecap="round" stroke-linejoin="round"/>
<path d="M958.5 331H1034" stroke="#ABD765" stroke-width="3" stroke-linecap="round" stroke-linejoin="round"/>
<path d="M958 253V248H999V253H958Z" fill="#ABD765" stroke="#ABD765" stroke-width="2" stroke-linecap="round" stroke-linejoin="round"/>
<path d="M958 236V230H1001V236H958Z" fill="#ABD765" stroke="#ABD765" stroke-width="2" stroke-linecap="round" stroke-linejoin="round"/>
<path d="M1004 290H958V288H1004V290Z" stroke="#ABD765" stroke-width="2" stroke-linecap="round" stroke-linejoin="round"/>
<path d="M958 282V274H1004V282H958Z" fill="#ABD765" stroke="#ABD765" stroke-width="2" stroke-linecap="round" stroke-linejoin="round"/>
<path d="M958.5 324H1034" stroke="#ABD765" stroke-width="3" stroke-linecap="round" stroke-linejoin="round"/>
<path d="M958.5 317H1018.5" stroke="#ABD765" stroke-width="3" stroke-linecap="round" stroke-linejoin="round"/>
<path d="M957 309V299C957 298.448 957.448 298 958 298H1003C1003.55 298 1004 298.448 1004 299V309C1004 309.552 1003.55 310 1003 310H958C957.448 310 957 309.552 957 309Z" fill="#ABD765"/>
</svg>
